<svg xmlns="http://www.w3.org/2000/svg" xmlns:xlink="http://www.w3.org/1999/xlink" width="1000" zoomAndPan="magnify" viewBox="0 0 750 749.999995" height="1000" preserveAspectRatio="xMidYMid meet" version="1.0"><defs><clipPath id="04812dc56f"><path d="M 16.027344 438 L 509 438 L 509 677.078125 L 16.027344 677.078125 Z M 16.027344 438 " clip-rule="nonzero"/></clipPath><clipPath id="972430684e"><path d="M 16.027344 618 L 70 618 L 70 675 L 16.027344 675 Z M 16.027344 618 " clip-rule="nonzero"/></clipPath><clipPath id="6e4e86ca05"><path d="M 16.027344 72.578125 L 559 72.578125 L 559 340 L 16.027344 340 Z M 16.027344 72.578125 " clip-rule="nonzero"/></clipPath><clipPath id="d480811f0d"><path d="M 16.027344 72.578125 L 78 72.578125 L 78 139 L 16.027344 139 Z M 16.027344 72.578125 " clip-rule="nonzero"/></clipPath><clipPath id="8125d4bce0"><path d="M 95 72.578125 L 733.777344 72.578125 L 733.777344 360 L 95 360 Z M 95 72.578125 " clip-rule="nonzero"/></clipPath><clipPath id="8b9719028b"><path d="M 95 378 L 733.777344 378 L 733.777344 665 L 95 665 Z M 95 378 " clip-rule="nonzero"/></clipPath></defs><path stroke-linecap="butt" transform="matrix(0.983219, 0, 0, 0.982923, 16.028448, 72.579816)" fill="none" stroke-linejoin="miter" d="M 510.681884 277.160968 L 112.523867 277.160968 " stroke="#ffffff" stroke-width="10" stroke-opacity="1" stroke-miterlimit="4"/><path fill="#ffffff" d="M 154.710938 342.542969 C 154.710938 343.453125 154.667969 344.359375 154.582031 345.261719 C 154.496094 346.164062 154.367188 347.0625 154.195312 347.953125 C 154.027344 348.84375 153.816406 349.722656 153.5625 350.59375 C 153.308594 351.460938 153.015625 352.316406 152.679688 353.152344 C 152.34375 353.992188 151.972656 354.8125 151.558594 355.613281 C 151.148438 356.414062 150.699219 357.191406 150.214844 357.945312 C 149.730469 358.703125 149.210938 359.429688 148.65625 360.132812 C 148.101562 360.832031 147.515625 361.507812 146.898438 362.148438 C 146.28125 362.789062 145.632812 363.398438 144.957031 363.976562 C 144.285156 364.550781 143.582031 365.089844 142.855469 365.597656 C 142.128906 366.101562 141.382812 366.566406 140.613281 366.996094 C 139.839844 367.421875 139.054688 367.808594 138.246094 368.15625 C 137.4375 368.503906 136.617188 368.8125 135.78125 369.074219 C 134.945312 369.335938 134.097656 369.558594 133.242188 369.734375 C 132.386719 369.914062 131.523438 370.046875 130.652344 370.132812 C 129.785156 370.222656 128.914062 370.269531 128.039062 370.269531 C 127.167969 370.269531 126.292969 370.222656 125.425781 370.132812 C 124.554688 370.046875 123.695312 369.914062 122.835938 369.734375 C 121.980469 369.558594 121.132812 369.335938 120.296875 369.074219 C 119.460938 368.8125 118.640625 368.503906 117.832031 368.15625 C 117.027344 367.808594 116.238281 367.421875 115.46875 366.996094 C 114.699219 366.566406 113.949219 366.101562 113.222656 365.597656 C 112.496094 365.089844 111.796875 364.550781 111.121094 363.976562 C 110.445312 363.398438 109.800781 362.789062 109.179688 362.148438 C 108.5625 361.507812 107.976562 360.835938 107.421875 360.132812 C 106.871094 359.429688 106.351562 358.703125 105.863281 357.945312 C 105.378906 357.191406 104.929688 356.414062 104.519531 355.613281 C 104.105469 354.8125 103.734375 353.992188 103.398438 353.152344 C 103.066406 352.316406 102.773438 351.460938 102.519531 350.59375 C 102.265625 349.722656 102.054688 348.84375 101.882812 347.953125 C 101.710938 347.0625 101.582031 346.164062 101.5 345.261719 C 101.414062 344.359375 101.371094 343.453125 101.371094 342.542969 C 101.371094 341.636719 101.414062 340.730469 101.5 339.828125 C 101.582031 338.921875 101.710938 338.027344 101.882812 337.136719 C 102.054688 336.246094 102.265625 335.367188 102.519531 334.496094 C 102.773438 333.628906 103.066406 332.773438 103.398438 331.933594 C 103.734375 331.097656 104.105469 330.277344 104.519531 329.476562 C 104.929688 328.675781 105.378906 327.898438 105.863281 327.140625 C 106.351562 326.386719 106.871094 325.660156 107.421875 324.957031 C 107.976562 324.253906 108.5625 323.582031 109.179688 322.941406 C 109.800781 322.300781 110.445312 321.691406 111.121094 321.113281 C 111.796875 320.539062 112.496094 319.996094 113.222656 319.492188 C 113.949219 318.988281 114.699219 318.523438 115.46875 318.09375 C 116.238281 317.667969 117.027344 317.277344 117.832031 316.929688 C 118.640625 316.585938 119.460938 316.277344 120.296875 316.015625 C 121.132812 315.75 121.980469 315.53125 122.835938 315.355469 C 123.695312 315.175781 124.554688 315.042969 125.425781 314.953125 C 126.292969 314.867188 127.167969 314.820312 128.039062 314.820312 C 128.914062 314.820312 129.785156 314.867188 130.652344 314.953125 C 131.523438 315.042969 132.386719 315.175781 133.242188 315.355469 C 134.097656 315.53125 134.945312 315.75 135.78125 316.015625 C 136.617188 316.277344 137.4375 316.585938 138.246094 316.929688 C 139.054688 317.277344 139.839844 317.667969 140.613281 318.09375 C 141.382812 318.523438 142.128906 318.988281 142.855469 319.492188 C 143.582031 319.996094 144.285156 320.539062 144.957031 321.113281 C 145.632812 321.691406 146.28125 322.300781 146.898438 322.941406 C 147.515625 323.582031 148.101562 324.253906 148.65625 324.957031 C 149.210938 325.660156 149.730469 326.386719 150.214844 327.140625 C 150.699219 327.898438 151.148438 328.675781 151.558594 329.476562 C 151.972656 330.277344 152.34375 331.097656 152.679688 331.933594 C 153.015625 332.773438 153.308594 333.628906 153.5625 334.496094 C 153.816406 335.367188 154.027344 336.246094 154.195312 337.136719 C 154.367188 338.027344 154.496094 338.921875 154.582031 339.828125 C 154.667969 340.730469 154.710938 341.636719 154.710938 342.542969 Z M 154.710938 342.542969 " fill-opacity="1" fill-rule="nonzero"/><path stroke-linecap="butt" transform="matrix(0.983219, 0, 0, 0.982923, 16.028448, 72.579816)" fill="none" stroke-linejoin="miter" d="M 502.024893 361.213488 L 31.738528 361.213488 " stroke="#ffffff" stroke-width="10" stroke-opacity="1" stroke-miterlimit="4"/><path fill="#ffffff" d="M 72.035156 422.019531 C 72.035156 422.925781 71.992188 423.832031 71.90625 424.734375 C 71.820312 425.640625 71.691406 426.535156 71.523438 427.425781 C 71.351562 428.316406 71.140625 429.199219 70.886719 430.066406 C 70.632812 430.933594 70.339844 431.789062 70.003906 432.628906 C 69.671875 433.46875 69.296875 434.285156 68.886719 435.085938 C 68.472656 435.886719 68.023438 436.667969 67.539062 437.421875 C 67.054688 438.175781 66.535156 438.90625 65.980469 439.605469 C 65.425781 440.308594 64.839844 440.980469 64.222656 441.621094 C 63.605469 442.265625 62.960938 442.875 62.285156 443.449219 C 61.609375 444.023438 60.90625 444.566406 60.183594 445.070312 C 59.457031 445.574219 58.707031 446.039062 57.9375 446.46875 C 57.167969 446.898438 56.378906 447.285156 55.570312 447.632812 C 54.765625 447.980469 53.941406 448.285156 53.105469 448.546875 C 52.269531 448.8125 51.425781 449.03125 50.566406 449.210938 C 49.710938 449.386719 48.847656 449.519531 47.980469 449.609375 C 47.109375 449.699219 46.238281 449.742188 45.363281 449.742188 C 44.492188 449.742188 43.621094 449.699219 42.75 449.609375 C 41.882812 449.519531 41.019531 449.386719 40.160156 449.210938 C 39.304688 449.03125 38.457031 448.8125 37.621094 448.546875 C 36.785156 448.285156 35.964844 447.980469 35.160156 447.632812 C 34.351562 447.285156 33.5625 446.898438 32.792969 446.46875 C 32.023438 446.039062 31.273438 445.574219 30.546875 445.070312 C 29.820312 444.566406 29.121094 444.023438 28.445312 443.449219 C 27.769531 442.875 27.125 442.265625 26.507812 441.621094 C 25.890625 440.980469 25.304688 440.308594 24.75 439.605469 C 24.195312 438.90625 23.675781 438.175781 23.191406 437.421875 C 22.703125 436.667969 22.253906 435.886719 21.84375 435.085938 C 21.433594 434.285156 21.058594 433.46875 20.726562 432.628906 C 20.390625 431.789062 20.097656 430.933594 19.84375 430.066406 C 19.589844 429.199219 19.378906 428.316406 19.207031 427.425781 C 19.035156 426.535156 18.910156 425.640625 18.824219 424.734375 C 18.738281 423.832031 18.695312 422.925781 18.695312 422.019531 C 18.695312 421.109375 18.738281 420.207031 18.824219 419.300781 C 18.910156 418.398438 19.035156 417.5 19.207031 416.609375 C 19.378906 415.71875 19.589844 414.839844 19.84375 413.972656 C 20.097656 413.101562 20.390625 412.25 20.726562 411.410156 C 21.058594 410.570312 21.433594 409.75 21.84375 408.949219 C 22.253906 408.148438 22.703125 407.371094 23.191406 406.617188 C 23.675781 405.863281 24.195312 405.132812 24.75 404.429688 C 25.304688 403.730469 25.890625 403.058594 26.507812 402.414062 C 27.125 401.773438 27.769531 401.164062 28.445312 400.589844 C 29.121094 400.011719 29.820312 399.472656 30.546875 398.96875 C 31.273438 398.464844 32.023438 397.996094 32.792969 397.570312 C 33.5625 397.140625 34.351562 396.753906 35.160156 396.40625 C 35.964844 396.058594 36.785156 395.753906 37.496094 395.488281 C 38.351562 395.226562 39.214844 395.003906 40.160156 394.828125 C 41.019531 394.652344 41.882812 394.519531 42.75 394.429688 C 43.621094 394.339844 44.492188 394.296875 45.363281 394.296875 C 46.238281 394.296875 47.109375 394.339844 47.980469 394.429688 C 48.847656 394.519531 49.710938 394.652344 50.566406 394.828125 C 51.425781 395.003906 52.269531 395.226562 53.105469 395.488281 C 53.941406 395.753906 54.765625 396.058594 55.570312 396.40625 C 56.378906 396.753906 57.167969 397.140625 57.9375 397.570312 C 58.707031 397.996094 59.457031 398.464844 60.183594 398.96875 C 60.90625 399.472656 61.609375 400.011719 62.285156 400.589844 C 62.960938 401.164062 63.605469 401.773438 64.222656 402.414062 C 64.839844 403.058594 65.425781 403.730469 65.980469 404.429688 C 66.535156 405.132812 67.054688 405.863281 67.539062 406.617188 C 68.023438 407.371094 68.472656 408.148438 68.886719 408.949219 C 69.296875 409.75 69.671875 410.570312 70.003906 411.410156 C 70.339844 412.25 70.632812 413.101562 70.886719 413.972656 C 71.140625 414.839844 71.351562 415.71875 71.523438 416.609375 C 71.691406 417.5 71.820312 418.398438 71.90625 419.300781 C 71.992188 420.207031 72.035156 421.109375 72.035156 422.019531 Z M 72.035156 422.019531 " fill-opacity="1" fill-rule="nonzero"/><g clip-path="url(#04812dc56f)"><path stroke-linecap="butt" transform="matrix(0.983219, 0, 0, 0.982923, 16.028448, 72.579816)" fill="none" stroke-linejoin="miter" d="M 444.318242 428.455504 L 168.784376 428.455504 L 27.408046 589.836343 " stroke="#ffffff" stroke-width="10" stroke-opacity="1" stroke-miterlimit="4"/></g><g clip-path="url(#972430684e)"><path fill="#ffffff" d="M 69.367188 646.582031 C 69.367188 647.488281 69.324219 648.394531 69.238281 649.296875 C 69.152344 650.203125 69.027344 651.097656 68.855469 651.988281 C 68.683594 652.878906 68.472656 653.757812 68.21875 654.628906 C 67.964844 655.496094 67.671875 656.351562 67.339844 657.191406 C 67.003906 658.027344 66.628906 658.847656 66.21875 659.648438 C 65.808594 660.449219 65.359375 661.226562 64.875 661.984375 C 64.386719 662.738281 63.867188 663.464844 63.3125 664.167969 C 62.761719 664.871094 62.175781 665.542969 61.558594 666.183594 C 60.9375 666.824219 60.292969 667.433594 59.617188 668.011719 C 58.941406 668.585938 58.242188 669.128906 57.515625 669.632812 C 56.789062 670.136719 56.039062 670.601562 55.269531 671.03125 C 54.5 671.457031 53.710938 671.847656 52.90625 672.195312 C 52.097656 672.539062 51.277344 672.847656 50.441406 673.109375 C 49.605469 673.375 48.757812 673.59375 47.902344 673.769531 C 47.042969 673.949219 46.179688 674.082031 45.3125 674.171875 C 44.441406 674.257812 43.570312 674.304688 42.699219 674.304688 C 41.824219 674.304688 40.953125 674.257812 40.085938 674.171875 C 39.214844 674.082031 38.351562 673.949219 37.496094 673.769531 C 36.636719 673.59375 35.792969 673.375 34.957031 673.109375 C 34.121094 672.847656 33.300781 672.539062 32.492188 672.195312 C 31.683594 671.847656 30.898438 671.457031 30.125 671.03125 C 29.355469 670.601562 28.609375 670.136719 27.882812 669.632812 C 27.15625 669.128906 26.453125 668.585938 25.777344 668.011719 C 25.105469 667.433594 24.457031 666.824219 23.839844 666.183594 C 23.222656 665.542969 22.636719 664.871094 22.082031 664.167969 C 21.527344 663.464844 21.007812 662.738281 20.523438 661.984375 C 20.039062 661.226562 19.589844 660.449219 19.175781 659.648438 C 18.765625 658.847656 18.394531 658.027344 18.058594 657.191406 C 17.722656 656.351562 17.429688 655.496094 17.175781 654.628906 C 16.921875 653.757812 16.710938 652.878906 16.539062 651.988281 C 16.371094 651.097656 16.242188 650.203125 16.15625 649.296875 C 16.070312 648.394531 16.027344 647.488281 16.027344 646.582031 C 16.027344 645.671875 16.070312 644.765625 16.15625 643.863281 C 16.242188 642.960938 16.371094 642.0625 16.539062 641.171875 C 16.710938 640.28125 16.921875 639.402344 17.175781 638.53125 C 17.429688 637.664062 17.722656 636.808594 18.058594 635.972656 C 18.394531 635.132812 18.765625 634.3125 19.175781 633.511719 C 19.589844 632.710938 20.039062 631.933594 20.523438 631.179688 C 21.007812 630.421875 21.527344 629.695312 22.082031 628.992188 C 22.636719 628.292969 23.222656 627.621094 23.839844 626.976562 C 24.457031 626.335938 25.105469 625.726562 25.777344 625.148438 C 26.453125 624.574219 27.15625 624.035156 27.882812 623.53125 C 28.609375 623.023438 29.355469 622.558594 30.125 622.128906 C 30.898438 621.703125 31.683594 621.316406 32.492188 620.96875 C 33.300781 620.621094 34.121094 620.316406 34.957031 620.050781 C 35.792969 619.789062 36.636719 619.566406 37.496094 619.390625 C 38.351562 619.210938 39.214844 619.078125 40.085938 618.992188 C 40.953125 618.902344 41.824219 618.855469 42.699219 618.855469 C 43.570312 618.855469 44.441406 618.902344 45.3125 618.992188 C 46.179688 619.078125 47.042969 619.210938 47.902344 619.390625 C 48.757812 619.566406 49.605469 619.789062 50.441406 620.050781 C 51.277344 620.316406 52.097656 620.621094 52.90625 620.96875 C 53.710938 621.316406 54.5 621.703125 55.269531 622.128906 C 56.039062 622.558594 56.789062 623.023438 57.515625 623.53125 C 58.242188 624.035156 58.941406 624.574219 59.617188 625.148438 C 60.292969 625.726562 60.9375 626.335938 61.558594 626.976562 C 62.175781 627.621094 62.761719 628.292969 63.3125 628.992188 C 63.867188 629.695312 64.386719 630.421875 64.875 631.179688 C 65.359375 631.933594 65.808594 632.710938 66.21875 633.511719 C 66.628906 634.3125 67.003906 635.132812 67.339844 135.972656 C 67.671875 636.808594 67.964844 637.664062 68.21875 638.53125 C 68.472656 639.402344 68.683594 640.28125 68.855469 641.171875 C 69.027344 642.0625 69.152344 642.960938 69.238281 643.863281 C 69.324219 644.765625 69.367188 645.671875 69.367188 646.582031 Z M 69.367188 646.582031 " fill-opacity="1" fill-rule="nonzero"/></g><g clip-path="url(#6e4e86ca05)"><path stroke-linecap="butt" transform="matrix(0.983219, 0, 0, 0.982923, 16.028448, 72.579816)" fill="none" stroke-linejoin="miter" d="M 494.810072 214.958129 L 180.325706 214.958129 L 36.065037 40.128887 " stroke="#ffffff" stroke-width="10" stroke-opacity="1" stroke-miterlimit="4"/></g><path fill="#ffffff" d="M 45.363281 77.324219 C 60.09375 77.324219 72.035156 89.734375 72.035156 105.046875 C 72.035156 120.355469 60.09375 132.769531 45.363281 132.769531 C 30.636719 132.769531 18.695312 120.359375 18.695312 105.046875 C 18.695312 89.734375 30.636719 77.324219 45.363281 77.324219 Z M 45.363281 77.324219 " fill-opacity="1" fill-rule="nonzero"/><g clip-path="url(#d480811f0d)"><path stroke-linecap="butt" transform="matrix(0.983219, 0, 0, 0.982923, 16.028448, 72.579816)" fill="none" stroke-linejoin="miter" d="M 29.8355 4.826829 C 44.817378 4.826829 56.962592 17.452591 56.962592 33.031119 C 56.962592 48.605674 44.817378 61.235409 29.8355 61.235409 C 14.857594 61.235409 2.71238 48.609648 2.71238 33.031119 C 2.71238 17.452591 14.857594 4.826829 29.8355 4.826829 Z M 29.8355 4.826829 " stroke="#000000" stroke-width="1" stroke-opacity="1" stroke-miterlimit="4"/></g><g clip-path="url(#8125d4bce0)"><path fill="#ffffff" d="M 165.058594 149.402344 C 125.875 110.699219 94.609375 77.59375 95.523438 75.816406 C 96.628906 73.710938 159.519531 72.578125 274.226562 72.578125 C 446.550781 72.578125 451.402344 72.742188 458.699219 79.050781 C 462.835938 82.613281 488.367188 108.078125 515.5 135.683594 C 542.597656 163.285156 603.335938 223.703125 650.496094 269.976562 C 697.625 316.25 735.078125 355.179688 733.742188 356.507812 C 732.410156 357.832031 690.265625 358.964844 548.914062 359.160156 L 410.496094 219.816406 L 236.253906 219.753906 Z M 165.058594 149.402344 " fill-opacity="1" fill-rule="nonzero"/></g><g clip-path="url(#8b9719028b)"><path fill="#ffffff" d="M 165.058594 588.09375 C 125.875 626.796875 94.609375 659.902344 95.523438 661.679688 C 96.628906 663.785156 159.519531 664.917969 274.226562 664.917969 C 446.550781 664.917969 451.402344 664.753906 458.699219 658.445312 C 462.835938 654.886719 488.367188 629.417969 515.5 601.816406 C 542.597656 574.210938 603.335938 513.796875 650.496094 467.519531 C 697.625 421.246094 735.078125 382.316406 733.742188 380.992188 C 732.410156 379.664062 690.265625 378.53125 548.914062 378.335938 L 410.496094 517.679688 L 236.253906 517.742188 Z M 165.058594 588.09375 " fill-opacity="1" fill-rule="nonzero"/></g><path fill="#1a6bff" d="M 145.15625 160.753906 C 105.976562 122.050781 74.707031 88.949219 75.621094 87.167969 C 76.726562 85.066406 139.617188 83.933594 254.328125 83.933594 C 426.648438 83.933594 431.5 84.09375 438.796875 90.402344 C 442.933594 93.964844 468.46875 119.429688 495.597656 147.035156 C 522.695312 174.636719 583.4375 235.054688 630.597656 281.328125 C 677.722656 327.601562 715.179688 366.53125 713.84375 367.859375 C 712.507812 369.1875 670.363281 370.316406 529.011719 370.511719 L 390.59375 231.171875 L 216.351562 231.105469 Z M 145.15625 160.753906 " fill-opacity="1" fill-rule="nonzero"/><path fill="#1a6bff" d="M 145.15625 599.449219 C 105.976562 638.148438 74.707031 671.253906 75.621094 673.035156 C 76.726562 675.136719 139.617188 676.269531 254.328125 676.269531 C 426.648438 676.269531 431.5 676.109375 438.796875 669.796875 C 442.933594 666.238281 468.46875 640.769531 495.597656 613.167969 C 522.695312 585.566406 583.4375 525.148438 630.597656 478.875 C 677.722656 432.597656 715.179688 393.671875 713.84375 392.34375 C 712.507812 391.015625 670.363281 389.882812 529.011719 389.691406 L 390.59375 529.03125 L 216.351562 529.097656 Z M 145.15625 599.449219 " fill-opacity="1" fill-rule="nonzero"/></svg>
