<svg xmlns="http://www.w3.org/2000/svg" xmlns:xlink="http://www.w3.org/1999/xlink" width="200" zoomAndPan="magnify" viewBox="0 0 150 149.999998" height="200" preserveAspectRatio="xMidYMid meet" version="1.0"><defs><clipPath id="6e481d8f9d"><path d="M 9.78125 38 L 20 38 L 20 49 L 9.78125 49 Z M 9.78125 38 " clip-rule="nonzero"/></clipPath><clipPath id="5a4b313018"><path d="M 9.78125 71 L 20 71 L 20 82 L 9.78125 82 Z M 9.78125 71 " clip-rule="nonzero"/></clipPath></defs><rect x="-15" width="180" fill="#ffffff" y="-15" height="179.999997" fill-opacity="1"/><rect x="-15" width="180" fill="#0f1c3f" y="-15" height="179.999997" fill-opacity="1"/><path fill="#1a6bff" d="M 99.644531 132.234375 L 58.398438 132.234375 C 55.816406 132.234375 53.613281 129.957031 53.613281 127.371094 L 53.613281 93.644531 C 44.800781 85.441406 39.785156 73.820312 39.785156 61.738281 C 39.785156 49.964844 44.34375 38.949219 52.625 30.59375 C 60.90625 22.316406 71.996094 17.757812 83.769531 17.757812 C 95.542969 17.757812 106.558594 22.316406 114.839844 30.59375 C 123.195312 38.949219 127.753906 49.964844 127.753906 61.738281 C 127.753906 62.726562 127.675781 63.867188 127.601562 64.855469 C 127.523438 65.917969 127.449219 66.980469 127.222656 68.121094 C 128.054688 69.792969 133.375 77.085938 138.234375 83.464844 C 138.234375 83.464844 138.3125 83.542969 138.3125 83.617188 C 138.539062 83.921875 140.210938 86.960938 138.917969 89.695312 C 138.007812 91.519531 136.109375 92.582031 133.144531 92.960938 C 133.144531 92.960938 133.070312 92.960938 132.996094 92.960938 L 127.90625 92.960938 C 127.828125 92.960938 127.753906 93.039062 127.753906 93.113281 L 127.753906 105.570312 C 127.753906 111.269531 123.117188 115.976562 117.34375 115.976562 L 104.433594 115.976562 L 104.433594 127.371094 C 104.433594 130.03125 102.304688 132.234375 99.644531 132.234375 Z M 83.769531 20.796875 C 61.207031 20.796875 42.824219 39.179688 42.824219 61.738281 C 42.824219 73.132812 47.6875 84.148438 56.195312 91.898438 C 56.5 92.125 56.652344 92.582031 56.652344 92.960938 L 56.652344 127.296875 C 56.652344 128.285156 57.484375 129.121094 58.398438 129.121094 L 99.644531 129.121094 C 100.632812 129.121094 101.394531 128.359375 101.394531 127.296875 L 101.394531 114.382812 C 101.394531 113.546875 102.078125 112.863281 102.914062 112.863281 L 117.34375 112.863281 C 121.371094 112.863281 124.714844 109.519531 124.714844 105.496094 L 124.714844 93.039062 C 124.714844 91.289062 126.15625 89.847656 127.90625 89.847656 L 132.917969 89.847656 C 134.132812 89.695312 135.652344 89.316406 136.183594 88.328125 C 136.714844 87.265625 136.03125 85.667969 135.730469 85.214844 C 135.273438 84.605469 132.691406 81.109375 130.03125 77.617188 C 124.03125 69.261719 124.105469 68.730469 124.183594 67.96875 C 124.183594 67.96875 124.183594 67.894531 124.183594 67.894531 C 124.410156 66.828125 124.484375 65.765625 124.5625 64.625 C 124.636719 63.640625 124.714844 62.652344 124.714844 61.738281 C 124.714844 39.179688 106.332031 20.796875 83.769531 20.796875 Z M 83.769531 20.796875 " fill-opacity="1" fill-rule="evenodd"/><path fill="#1a6bff" d="M 89.617188 95.46875 L 78.300781 95.46875 C 77.464844 95.46875 76.78125 94.785156 76.78125 93.949219 L 76.78125 89.164062 C 73.742188 88.402344 71.007812 87.265625 68.5 85.746094 L 65.082031 89.085938 C 64.476562 89.695312 63.5625 89.695312 62.957031 89.085938 L 54.902344 81.109375 C 54.597656 80.808594 54.449219 80.425781 54.449219 80.046875 C 54.449219 79.667969 54.597656 79.289062 54.902344 78.984375 L 58.320312 75.566406 C 56.726562 72.90625 55.585938 70.097656 54.902344 67.285156 L 50.117188 67.285156 C 49.28125 67.285156 48.597656 66.601562 48.597656 65.765625 L 48.597656 54.371094 C 48.597656 53.535156 49.28125 52.851562 50.117188 52.851562 L 54.902344 52.851562 C 55.585938 49.964844 56.800781 47.230469 58.320312 44.648438 L 54.902344 41.230469 C 54.371094 40.699219 54.371094 39.710938 54.902344 39.101562 L 62.957031 31.050781 C 63.257812 30.746094 63.640625 30.59375 64.019531 30.59375 C 64.398438 30.59375 64.777344 30.746094 65.082031 31.050781 L 68.5 34.46875 C 71.007812 32.875 73.820312 31.734375 76.78125 30.976562 L 76.78125 26.1875 C 76.78125 25.355469 77.464844 24.667969 78.300781 24.667969 L 89.617188 24.667969 C 90.453125 24.667969 91.136719 25.355469 91.136719 26.1875 L 91.136719 30.976562 C 94.023438 31.734375 96.835938 32.875 99.417969 34.394531 L 102.761719 31.050781 C 103.0625 30.746094 103.445312 30.59375 103.824219 30.59375 C 104.28125 30.59375 104.660156 30.746094 104.886719 31.050781 L 112.941406 39.101562 C 113.546875 39.632812 113.546875 40.621094 112.941406 41.230469 L 109.597656 44.648438 C 111.117188 47.15625 112.257812 49.964844 112.941406 52.851562 L 117.726562 52.851562 C 118.5625 52.851562 119.246094 53.535156 119.246094 54.371094 L 119.246094 65.765625 C 119.246094 66.601562 118.5625 67.285156 117.726562 67.285156 L 113.015625 67.285156 C 112.332031 70.097656 111.191406 72.90625 109.597656 75.566406 L 113.015625 78.90625 C 113.242188 79.210938 113.472656 79.589844 113.472656 80.046875 C 113.472656 80.425781 113.320312 80.808594 113.015625 81.109375 L 104.964844 89.085938 C 104.355469 89.617188 103.367188 89.617188 102.835938 89.085938 L 99.417969 85.746094 C 96.910156 87.265625 94.175781 88.402344 91.136719 89.164062 L 91.136719 93.949219 C 91.136719 94.785156 90.453125 95.46875 89.617188 95.46875 Z M 79.820312 92.429688 L 88.097656 92.429688 L 88.097656 87.949219 C 88.097656 87.1875 88.632812 86.582031 89.316406 86.429688 C 92.886719 85.667969 96.074219 84.378906 98.808594 82.554688 C 99.417969 82.175781 100.179688 82.25 100.710938 82.707031 L 103.898438 85.820312 L 109.824219 79.972656 L 106.632812 76.855469 C 106.101562 76.324219 106.027344 75.566406 106.40625 74.957031 C 108.382812 71.917969 109.671875 68.730469 110.28125 65.460938 C 110.433594 64.777344 111.039062 64.246094 111.800781 64.246094 L 116.28125 64.246094 L 116.28125 55.890625 L 111.800781 55.890625 C 111.039062 55.890625 110.433594 55.359375 110.28125 54.597656 C 109.671875 51.332031 108.304688 48.066406 106.40625 45.257812 C 106.027344 44.648438 106.101562 43.8125 106.632812 43.28125 L 109.824219 40.089844 L 103.898438 34.242188 L 100.710938 37.433594 C 100.253906 37.886719 99.417969 37.964844 98.808594 37.582031 C 96 35.683594 92.734375 34.316406 89.316406 33.632812 C 88.632812 33.480469 88.097656 32.875 88.097656 32.113281 L 88.097656 27.707031 L 79.820312 27.707031 L 79.820312 32.191406 C 79.820312 32.875 79.289062 33.558594 78.605469 33.710938 C 75.1875 34.394531 71.917969 35.761719 69.109375 37.660156 C 68.5 38.039062 67.742188 37.964844 67.210938 37.433594 L 64.019531 34.242188 L 58.09375 40.167969 L 61.285156 43.355469 C 61.816406 43.890625 61.890625 44.648438 61.4375 45.257812 C 59.539062 48.144531 58.246094 51.410156 57.5625 54.675781 C 57.484375 55.359375 56.800781 55.890625 56.117188 55.890625 L 51.636719 55.890625 L 51.636719 64.246094 L 56.117188 64.246094 C 56.878906 64.246094 57.484375 64.777344 57.636719 65.539062 C 58.246094 68.804688 59.539062 71.996094 61.511719 74.957031 C 61.890625 75.566406 61.816406 76.402344 61.285156 76.855469 L 58.09375 80.046875 L 64.019531 85.898438 L 67.210938 82.78125 C 67.742188 82.25 68.5 82.175781 69.109375 82.628906 C 71.84375 84.453125 75.035156 85.746094 78.605469 86.503906 C 79.289062 86.65625 79.820312 87.265625 79.820312 87.949219 Z M 78.300781 32.191406 Z M 78.300781 32.191406 " fill-opacity="1" fill-rule="evenodd"/><path fill="#1a6bff" d="M 92.277344 69.945312 L 75.640625 69.945312 C 74.804688 69.945312 74.121094 69.261719 74.121094 68.425781 L 74.121094 51.789062 C 74.121094 50.953125 74.804688 50.269531 75.640625 50.269531 L 92.277344 50.269531 C 93.113281 50.269531 93.796875 50.953125 93.796875 51.789062 L 93.796875 68.425781 C 93.796875 69.261719 93.113281 69.945312 92.277344 69.945312 Z M 77.160156 66.90625 L 90.757812 66.90625 L 90.757812 53.308594 L 77.160156 53.308594 Z M 77.160156 66.90625 " fill-opacity="1" fill-rule="evenodd"/><path fill="#1a6bff" d="M 99.570312 77.238281 L 68.347656 77.238281 C 67.511719 77.238281 66.828125 76.554688 66.828125 75.71875 L 66.828125 44.496094 C 66.828125 43.660156 67.511719 42.976562 68.347656 42.976562 L 99.570312 42.976562 C 100.40625 42.976562 101.089844 43.660156 101.089844 44.496094 L 101.089844 75.71875 C 101.089844 76.554688 100.40625 77.238281 99.570312 77.238281 Z M 69.867188 74.199219 L 98.050781 74.199219 L 98.050781 46.015625 L 69.867188 46.015625 Z M 69.867188 74.199219 " fill-opacity="1" fill-rule="evenodd"/><path fill="#1a6bff" d="M 95.089844 46.015625 C 94.253906 46.015625 93.570312 45.332031 93.570312 44.496094 L 93.570312 40.621094 C 93.570312 39.785156 94.253906 39.101562 95.089844 39.101562 C 95.925781 39.101562 96.609375 39.785156 96.609375 40.621094 L 96.609375 44.496094 C 96.609375 45.332031 95.925781 46.015625 95.089844 46.015625 Z M 95.089844 46.015625 " fill-opacity="1" fill-rule="evenodd"/><path fill="#1a6bff" d="M 90.605469 46.015625 C 89.769531 46.015625 89.085938 45.332031 89.085938 44.496094 L 89.085938 40.621094 C 89.085938 39.785156 89.769531 39.101562 90.605469 39.101562 C 91.441406 39.101562 92.125 39.785156 92.125 40.621094 L 92.125 44.496094 C 92.125 45.332031 91.441406 46.015625 90.605469 46.015625 Z M 90.605469 46.015625 " fill-opacity="1" fill-rule="evenodd"/><path fill="#1a6bff" d="M 86.199219 46.015625 C 85.363281 46.015625 84.679688 45.332031 84.679688 44.496094 L 84.679688 40.621094 C 84.679688 39.785156 85.363281 39.101562 86.199219 39.101562 C 87.035156 39.101562 87.71875 39.785156 87.71875 40.621094 L 87.71875 44.496094 C 87.71875 45.332031 87.035156 46.015625 86.199219 46.015625 Z M 86.199219 46.015625 " fill-opacity="1" fill-rule="evenodd"/><path fill="#1a6bff" d="M 81.71875 46.015625 C 80.882812 46.015625 80.199219 45.332031 80.199219 44.496094 L 80.199219 40.621094 C 80.199219 39.785156 80.882812 39.101562 81.71875 39.101562 C 82.554688 39.101562 83.238281 39.785156 83.238281 40.621094 L 83.238281 44.496094 C 83.238281 45.332031 82.554688 46.015625 81.71875 46.015625 Z M 81.71875 46.015625 " fill-opacity="1" fill-rule="evenodd"/><path fill="#1a6bff" d="M 77.238281 46.015625 C 76.402344 46.015625 75.71875 45.332031 75.71875 44.496094 L 75.71875 40.621094 C 75.71875 39.785156 76.402344 39.101562 77.238281 39.101562 C 78.074219 39.101562 78.757812 39.785156 78.757812 40.621094 L 78.757812 44.496094 C 78.757812 45.332031 78.074219 46.015625 77.238281 46.015625 Z M 77.238281 46.015625 " fill-opacity="1" fill-rule="evenodd"/><path fill="#1a6bff" d="M 72.832031 46.015625 C 71.996094 46.015625 71.3125 45.332031 71.3125 44.496094 L 71.3125 40.621094 C 71.3125 39.785156 71.996094 39.101562 72.832031 39.101562 C 73.667969 39.101562 74.351562 39.785156 74.351562 40.621094 L 74.351562 44.496094 C 74.351562 45.332031 73.667969 46.015625 72.832031 46.015625 Z M 72.832031 46.015625 " fill-opacity="1" fill-rule="evenodd"/><path fill="#1a6bff" d="M 95.089844 81.035156 C 94.253906 81.035156 93.570312 80.351562 93.570312 79.515625 L 93.570312 75.71875 C 93.570312 74.882812 94.253906 74.199219 95.089844 74.199219 C 95.925781 74.199219 96.609375 74.882812 96.609375 75.71875 L 96.609375 79.515625 C 96.609375 80.351562 95.925781 81.035156 95.089844 81.035156 Z M 95.089844 81.035156 " fill-opacity="1" fill-rule="evenodd"/><path fill="#1a6bff" d="M 90.605469 81.035156 C 89.769531 81.035156 89.085938 80.351562 89.085938 79.515625 L 89.085938 75.71875 C 89.085938 74.882812 89.769531 74.199219 90.605469 74.199219 C 91.441406 74.199219 92.125 74.882812 92.125 75.71875 L 92.125 79.515625 C 92.125 80.351562 91.441406 81.035156 90.605469 81.035156 Z M 90.605469 81.035156 " fill-opacity="1" fill-rule="evenodd"/><path fill="#1a6bff" d="M 86.199219 81.035156 C 85.363281 81.035156 84.679688 80.351562 84.679688 79.515625 L 84.679688 75.71875 C 84.679688 74.882812 85.363281 74.199219 86.199219 74.199219 C 87.035156 74.199219 87.71875 74.882812 87.71875 75.71875 L 87.71875 79.515625 C 87.71875 80.351562 87.035156 81.035156 86.199219 81.035156 Z M 86.199219 81.035156 " fill-opacity="1" fill-rule="evenodd"/><path fill="#1a6bff" d="M 81.71875 81.035156 C 80.882812 81.035156 80.199219 80.351562 80.199219 79.515625 L 80.199219 75.71875 C 80.199219 74.882812 80.882812 74.199219 81.71875 74.199219 C 82.554688 74.199219 83.238281 74.882812 83.238281 75.71875 L 83.238281 79.515625 C 83.238281 80.351562 82.554688 81.035156 81.71875 81.035156 Z M 81.71875 81.035156 " fill-opacity="1" fill-rule="evenodd"/><path fill="#1a6bff" d="M 77.238281 81.035156 C 76.402344 81.035156 75.71875 80.351562 75.71875 79.515625 L 75.71875 75.71875 C 75.71875 74.882812 76.402344 74.199219 77.238281 74.199219 C 78.074219 74.199219 78.757812 74.882812 78.757812 75.71875 L 78.757812 79.515625 C 78.757812 80.351562 78.074219 81.035156 77.238281 81.035156 Z M 77.238281 81.035156 " fill-opacity="1" fill-rule="evenodd"/><path fill="#1a6bff" d="M 72.832031 81.035156 C 71.996094 81.035156 71.3125 80.351562 71.3125 79.515625 L 71.3125 75.71875 C 71.3125 74.882812 71.996094 74.199219 72.832031 74.199219 C 73.667969 74.199219 74.351562 74.882812 74.351562 75.71875 L 74.351562 79.515625 C 74.351562 80.351562 73.667969 81.035156 72.832031 81.035156 Z M 72.832031 81.035156 " fill-opacity="1" fill-rule="evenodd"/><path fill="#1a6bff" d="M 103.445312 72.753906 L 99.570312 72.753906 C 98.734375 72.753906 98.050781 72.070312 98.050781 71.234375 C 98.050781 70.398438 98.734375 69.714844 99.570312 69.714844 L 103.445312 69.714844 C 104.28125 69.714844 104.964844 70.398438 104.964844 71.234375 C 104.964844 72.070312 104.28125 72.753906 103.445312 72.753906 Z M 103.445312 72.753906 " fill-opacity="1" fill-rule="evenodd"/><path fill="#1a6bff" d="M 103.445312 68.273438 L 99.570312 68.273438 C 98.734375 68.273438 98.050781 67.589844 98.050781 66.753906 C 98.050781 65.917969 98.734375 65.234375 99.570312 65.234375 L 103.445312 65.234375 C 104.28125 65.234375 104.964844 65.917969 104.964844 66.753906 C 104.964844 67.589844 104.28125 68.273438 103.445312 68.273438 Z M 103.445312 68.273438 " fill-opacity="1" fill-rule="evenodd"/><path fill="#1a6bff" d="M 103.445312 63.867188 L 99.570312 63.867188 C 98.734375 63.867188 98.050781 63.183594 98.050781 62.347656 C 98.050781 61.511719 98.734375 60.828125 99.570312 60.828125 L 103.445312 60.828125 C 104.28125 60.828125 104.964844 61.511719 104.964844 62.347656 C 104.964844 63.183594 104.28125 63.867188 103.445312 63.867188 Z M 103.445312 63.867188 " fill-opacity="1" fill-rule="evenodd"/><path fill="#1a6bff" d="M 103.445312 59.386719 L 99.570312 59.386719 C 98.734375 59.386719 98.050781 58.703125 98.050781 57.867188 C 98.050781 57.03125 98.734375 56.347656 99.570312 56.347656 L 103.445312 56.347656 C 104.28125 56.347656 104.964844 57.03125 104.964844 57.867188 C 104.964844 58.703125 104.28125 59.386719 103.445312 59.386719 Z M 103.445312 59.386719 " fill-opacity="1" fill-rule="evenodd"/><path fill="#1a6bff" d="M 103.445312 54.902344 L 99.570312 54.902344 C 98.734375 54.902344 98.050781 54.21875 98.050781 53.382812 C 98.050781 52.546875 98.734375 51.863281 99.570312 51.863281 L 103.445312 51.863281 C 104.28125 51.863281 104.964844 52.546875 104.964844 53.382812 C 104.964844 54.21875 104.28125 54.902344 103.445312 54.902344 Z M 103.445312 54.902344 " fill-opacity="1" fill-rule="evenodd"/><path fill="#1a6bff" d="M 103.445312 50.496094 L 99.570312 50.496094 C 98.734375 50.496094 98.050781 49.8125 98.050781 48.976562 C 98.050781 48.144531 98.734375 47.460938 99.570312 47.460938 L 103.445312 47.460938 C 104.28125 47.460938 104.964844 48.144531 104.964844 48.976562 C 104.964844 49.8125 104.28125 50.496094 103.445312 50.496094 Z M 103.445312 50.496094 " fill-opacity="1" fill-rule="evenodd"/><path fill="#1a6bff" d="M 68.347656 72.753906 L 64.476562 72.753906 C 63.640625 72.753906 62.957031 72.070312 62.957031 71.234375 C 62.957031 70.398438 63.640625 69.714844 64.476562 69.714844 L 68.347656 69.714844 C 69.183594 69.714844 69.867188 70.398438 69.867188 71.234375 C 69.867188 72.070312 69.183594 72.753906 68.347656 72.753906 Z M 68.347656 72.753906 " fill-opacity="1" fill-rule="evenodd"/><path fill="#1a6bff" d="M 68.347656 68.273438 L 64.476562 68.273438 C 63.640625 68.273438 62.957031 67.589844 62.957031 66.753906 C 62.957031 65.917969 63.640625 65.234375 64.476562 65.234375 L 68.347656 65.234375 C 69.183594 65.234375 69.867188 65.917969 69.867188 66.753906 C 69.867188 67.589844 69.183594 68.273438 68.347656 68.273438 Z M 68.347656 68.273438 " fill-opacity="1" fill-rule="evenodd"/><path fill="#1a6bff" d="M 68.347656 63.867188 L 64.476562 63.867188 C 63.640625 63.867188 62.957031 63.183594 62.957031 62.347656 C 62.957031 61.511719 63.640625 60.828125 64.476562 60.828125 L 68.347656 60.828125 C 69.183594 60.828125 69.867188 61.511719 69.867188 62.347656 C 69.867188 63.183594 69.183594 63.867188 68.347656 63.867188 Z M 68.347656 63.867188 " fill-opacity="1" fill-rule="evenodd"/><path fill="#1a6bff" d="M 68.347656 59.386719 L 64.476562 59.386719 C 63.640625 59.386719 62.957031 58.703125 62.957031 57.867188 C 62.957031 57.03125 63.640625 56.347656 64.476562 56.347656 L 68.347656 56.347656 C 69.183594 56.347656 69.867188 57.03125 69.867188 57.867188 C 69.867188 58.703125 69.183594 59.386719 68.347656 59.386719 Z M 68.347656 59.386719 " fill-opacity="1" fill-rule="evenodd"/><path fill="#1a6bff" d="M 68.347656 54.902344 L 64.476562 54.902344 C 63.640625 54.902344 62.957031 54.21875 62.957031 53.382812 C 62.957031 52.546875 63.640625 51.863281 64.476562 51.863281 L 68.347656 51.863281 C 69.183594 51.863281 69.867188 52.546875 69.867188 53.382812 C 69.867188 54.21875 69.183594 54.902344 68.347656 54.902344 Z M 68.347656 54.902344 " fill-opacity="1" fill-rule="evenodd"/><path fill="#1a6bff" d="M 68.347656 50.496094 L 64.476562 50.496094 C 63.640625 50.496094 62.957031 49.8125 62.957031 48.976562 C 62.957031 48.144531 63.640625 47.460938 64.476562 47.460938 L 68.347656 47.460938 C 69.183594 47.460938 69.867188 48.144531 69.867188 48.976562 C 69.867188 49.8125 69.183594 50.496094 68.347656 50.496094 Z M 68.347656 50.496094 " fill-opacity="1" fill-rule="evenodd"/><path fill="#1a6bff" d="M 50.117188 61.589844 L 28.238281 61.589844 C 27.40625 61.589844 26.722656 60.90625 26.722656 60.070312 C 26.722656 59.234375 27.40625 58.550781 28.238281 58.550781 L 50.117188 58.550781 C 50.953125 58.550781 51.636719 59.234375 51.636719 60.070312 C 51.636719 60.90625 50.953125 61.589844 50.117188 61.589844 Z M 50.117188 61.589844 " fill-opacity="1" fill-rule="evenodd"/><path fill="#1a6bff" d="M 24.746094 65.082031 C 22.011719 65.082031 19.730469 62.804688 19.730469 60.070312 C 19.730469 57.335938 22.011719 55.054688 24.746094 55.054688 C 27.480469 55.054688 29.757812 57.335938 29.757812 60.070312 C 29.757812 62.878906 27.554688 65.082031 24.746094 65.082031 Z M 24.746094 58.09375 C 23.683594 58.09375 22.769531 59.003906 22.769531 60.070312 C 22.769531 61.132812 23.683594 62.042969 24.746094 62.042969 C 25.886719 62.042969 26.722656 61.207031 26.722656 60.070312 C 26.722656 59.003906 25.808594 58.09375 24.746094 58.09375 Z M 24.746094 58.09375 " fill-opacity="1" fill-rule="evenodd"/><path fill="#1a6bff" d="M 42.21875 54.371094 L 32.949219 54.371094 C 32.417969 54.371094 31.886719 54.066406 31.660156 53.613281 L 26.796875 45.105469 L 18.289062 45.105469 C 17.453125 45.105469 16.769531 44.421875 16.769531 43.585938 C 16.769531 42.75 17.453125 42.066406 18.289062 42.066406 L 27.632812 42.066406 C 28.164062 42.066406 28.695312 42.371094 29 42.824219 L 33.863281 51.332031 L 42.21875 51.332031 C 43.054688 51.332031 43.738281 52.015625 43.738281 52.851562 C 43.738281 53.6875 43.054688 54.371094 42.21875 54.371094 Z M 42.21875 54.371094 " fill-opacity="1" fill-rule="evenodd"/><path fill="#1a6bff" d="M 60.222656 45.484375 L 40.46875 45.484375 C 39.9375 45.484375 39.40625 45.179688 39.179688 44.722656 L 34.164062 36.214844 L 25.734375 36.214844 C 24.898438 36.214844 24.214844 35.53125 24.214844 34.695312 C 24.214844 33.863281 24.898438 33.179688 25.734375 33.179688 L 35.078125 33.179688 C 35.609375 33.179688 36.140625 33.480469 36.367188 33.9375 L 41.382812 42.445312 L 60.222656 42.445312 C 61.054688 42.445312 61.738281 43.128906 61.738281 43.964844 C 61.738281 44.800781 61.054688 45.484375 60.222656 45.484375 Z M 60.222656 45.484375 " fill-opacity="1" fill-rule="evenodd"/><path fill="#1a6bff" d="M 22.316406 39.710938 C 19.582031 39.710938 17.300781 37.433594 17.300781 34.695312 C 17.300781 31.960938 19.582031 29.683594 22.316406 29.683594 C 25.050781 29.683594 27.253906 31.960938 27.253906 34.695312 C 27.253906 37.433594 25.050781 39.710938 22.316406 39.710938 Z M 22.316406 32.722656 C 21.25 32.722656 20.339844 33.632812 20.339844 34.695312 C 20.339844 35.761719 21.25 36.671875 22.316406 36.671875 C 23.378906 36.671875 24.214844 35.761719 24.214844 34.695312 C 24.214844 33.632812 23.378906 32.722656 22.316406 32.722656 Z M 22.316406 32.722656 " fill-opacity="1" fill-rule="evenodd"/><g clip-path="url(#6e481d8f9d)"><path fill="#1a6bff" d="M 14.792969 48.597656 C 12.058594 48.597656 9.78125 46.320312 9.78125 43.585938 C 9.78125 40.851562 12.136719 38.570312 14.792969 38.570312 C 17.53125 38.570312 19.808594 40.851562 19.808594 43.585938 C 19.808594 46.320312 17.605469 48.597656 14.792969 48.597656 Z M 14.792969 41.609375 C 13.730469 41.609375 12.820312 42.519531 12.820312 43.585938 C 12.820312 44.648438 13.730469 45.558594 14.792969 45.558594 C 15.933594 45.558594 16.769531 44.648438 16.769531 43.585938 C 16.769531 42.519531 15.859375 41.609375 14.792969 41.609375 Z M 14.792969 41.609375 " fill-opacity="1" fill-rule="evenodd"/></g><path fill="#1a6bff" d="M 27.632812 78.074219 L 18.289062 78.074219 C 17.453125 78.074219 16.769531 77.390625 16.769531 76.554688 C 16.769531 75.71875 17.453125 75.035156 18.289062 75.035156 L 26.796875 75.035156 L 31.660156 66.527344 C 31.960938 65.996094 32.417969 65.765625 32.949219 65.765625 L 41.6875 65.765625 C 42.519531 65.765625 43.203125 66.449219 43.203125 67.285156 C 43.203125 68.121094 42.519531 68.804688 41.6875 68.804688 L 33.863281 68.804688 L 28.925781 77.3125 C 28.695312 77.769531 28.164062 78.074219 27.632812 78.074219 Z M 27.632812 78.074219 " fill-opacity="1" fill-rule="evenodd"/><path fill="#1a6bff" d="M 35.078125 87.035156 L 25.734375 87.035156 C 24.898438 87.035156 24.214844 86.351562 24.214844 85.515625 C 24.214844 84.679688 24.898438 83.996094 25.734375 83.996094 L 34.164062 83.996094 L 39.179688 75.488281 C 39.40625 75.035156 39.9375 74.730469 40.46875 74.730469 L 60.222656 74.730469 C 61.054688 74.730469 61.738281 75.414062 61.738281 76.25 C 61.738281 77.085938 61.054688 77.769531 60.222656 77.769531 L 41.382812 77.769531 L 36.367188 86.277344 C 36.140625 86.730469 35.609375 87.035156 35.078125 87.035156 Z M 35.078125 87.035156 " fill-opacity="1" fill-rule="evenodd"/><path fill="#1a6bff" d="M 22.316406 90.53125 C 19.582031 90.53125 17.300781 88.25 17.300781 85.515625 C 17.300781 82.707031 19.503906 80.503906 22.316406 80.503906 C 25.125 80.503906 27.253906 82.707031 27.253906 85.515625 C 27.253906 88.25 25.050781 90.53125 22.316406 90.53125 Z M 22.316406 83.542969 C 21.175781 83.542969 20.339844 84.378906 20.339844 85.515625 C 20.339844 86.582031 21.25 87.492188 22.316406 87.492188 C 23.378906 87.492188 24.214844 86.582031 24.214844 85.515625 C 24.214844 84.378906 23.378906 83.542969 22.316406 83.542969 Z M 22.316406 83.542969 " fill-opacity="1" fill-rule="evenodd"/><g clip-path="url(#5a4b313018)"><path fill="#1a6bff" d="M 14.792969 81.566406 C 12.058594 81.566406 9.78125 79.289062 9.78125 76.554688 C 9.78125 73.820312 12.136719 71.539062 14.792969 71.539062 C 17.53125 71.539062 19.808594 73.820312 19.808594 76.554688 C 19.808594 79.289062 17.605469 81.566406 14.792969 81.566406 Z M 14.792969 74.578125 C 13.730469 74.578125 12.820312 75.488281 12.820312 76.554688 C 12.820312 77.617188 13.730469 78.527344 14.792969 78.527344 C 15.933594 78.527344 16.769531 77.617188 16.769531 76.554688 C 16.769531 75.488281 15.859375 74.578125 14.792969 74.578125 Z M 14.792969 74.578125 " fill-opacity="1" fill-rule="evenodd"/></g></svg>