<svg xmlns="http://www.w3.org/2000/svg" xmlns:xlink="http://www.w3.org/1999/xlink" width="240" zoomAndPan="magnify" viewBox="0 0 180 179.999997" height="240" preserveAspectRatio="xMidYMid meet" version="1.0"><defs><clipPath id="b0bba082fa"><path d="M 11.695312 12.773438 L 168.445312 12.773438 L 168.445312 167.273438 L 11.695312 167.273438 Z M 11.695312 12.773438 " clip-rule="nonzero"/></clipPath></defs><rect x="-18" width="216" fill="#ffffff" y="-18" height="215.999996" fill-opacity="1"/><rect x="-18" width="216" fill="#ffffff" y="-18" height="215.999996" fill-opacity="1"/><g clip-path="url(#b0bba082fa)"><path fill="#3d87c8" d="M 123.84375 66.777344 L 155.9375 51.625 L 89.964844 20.492188 L 23.996094 51.625 L 56.089844 66.777344 L 88.402344 51.523438 C 89.355469 51.074219 90.492188 51.039062 91.519531 51.523438 L 123.835938 66.777344 Z M 56.089844 113.25 L 23.996094 128.402344 L 89.964844 159.535156 L 155.9375 128.402344 L 123.84375 113.25 L 91.527344 128.507812 C 90.574219 128.953125 89.4375 128.992188 88.410156 128.507812 L 56.097656 113.25 Z M 132.414062 109.207031 L 166.078125 125.09375 C 166.816406 125.445312 167.449219 126.046875 167.824219 126.839844 C 168.6875 128.667969 167.902344 130.847656 166.078125 131.710938 L 91.527344 166.886719 C 90.574219 167.335938 89.4375 167.371094 88.410156 166.886719 L 13.863281 131.710938 C 13.121094 131.359375 12.488281 130.757812 12.117188 129.964844 C 11.25 128.140625 12.035156 125.960938 13.863281 125.09375 L 47.527344 109.207031 L 13.863281 93.324219 C 13.121094 92.972656 12.488281 92.375 12.117188 91.578125 C 11.25 89.75 12.035156 87.570312 13.863281 86.710938 L 47.527344 70.828125 L 13.863281 54.941406 C 13.121094 54.589844 12.488281 53.988281 12.117188 53.195312 C 11.25 51.367188 12.035156 49.1875 13.863281 48.324219 L 88.410156 13.148438 C 89.363281 12.699219 90.5 12.664062 91.527344 13.148438 L 166.078125 48.324219 C 166.816406 48.675781 167.449219 49.277344 167.824219 50.070312 C 168.6875 51.894531 167.902344 54.074219 166.078125 54.941406 L 132.414062 70.828125 L 166.078125 86.710938 C 166.816406 87.0625 167.449219 87.660156 167.824219 88.457031 C 168.6875 90.285156 167.902344 92.464844 166.078125 93.324219 Z M 132.414062 109.207031 " fill-opacity="1" fill-rule="evenodd"/></g></svg>