<svg xmlns="http://www.w3.org/2000/svg" xmlns:xlink="http://www.w3.org/1999/xlink" width="240" zoomAndPan="magnify" viewBox="0 0 180 179.999997" height="240" preserveAspectRatio="xMidYMid meet" version="1.0"><defs><clipPath id="12b3d61115"><path d="M 14 8.347656 L 166.109375 8.347656 L 166.109375 171.847656 L 14 171.847656 Z M 14 8.347656 " clip-rule="nonzero"/></clipPath></defs><rect x="-18" width="216" fill="#ffffff" y="-18" height="215.999996" fill-opacity="1"/><rect x="-18" width="216" fill="#ffffff" y="-18" height="215.999996" fill-opacity="1"/><g clip-path="url(#12b3d61115)"><path fill="#260fde" d="M 34.996094 49.570312 C 46.339844 49.570312 55.539062 40.371094 55.539062 29.023438 C 55.539062 17.679688 46.339844 8.480469 34.996094 8.480469 C 23.648438 8.480469 14.453125 17.679688 14.453125 29.023438 C 14.453125 40.371094 23.648438 49.570312 34.996094 49.570312 Z M 42.957031 164.222656 L 26.703125 129.777344 C 26.121094 128.546875 24.660156 128.003906 23.429688 128.574219 L 15.636719 132.199219 C 14.441406 132.757812 13.886719 134.230469 14.449219 135.433594 L 30.703125 169.878906 C 31.285156 171.109375 32.75 171.648438 33.976562 171.078125 L 41.769531 167.453125 C 42.960938 166.898438 43.519531 165.433594 42.957031 164.222656 Z M 60.441406 117.921875 C 62.53125 116.796875 64.695312 116.726562 66.855469 117.710938 L 89.398438 127.957031 C 90.230469 128.335938 90.859375 128.96875 91.226562 129.726562 C 91.765625 130.84375 91.617188 131.683594 91.335938 132.804688 C 90.914062 134.496094 89.214844 136.132812 87.585938 135.742188 L 71.746094 130 C 71.324219 129.847656 70.890625 129.808594 70.476562 129.871094 L 70.476562 129.867188 L 63.113281 130.949219 C 61.679688 131.160156 60.691406 132.492188 60.898438 133.921875 C 61.109375 135.355469 62.441406 136.347656 63.871094 136.136719 C 64.601562 136.03125 70.460938 135.101562 70.671875 135.179688 L 85.566406 140.597656 C 85.828125 140.691406 86.074219 140.769531 86.296875 140.824219 C 88.453125 141.363281 102.84375 135.527344 105.722656 133.671875 C 107.28125 132.671875 109.644531 131.054688 112.484375 129.113281 C 123.207031 121.777344 140.964844 109.628906 145.648438 109.59375 C 147.460938 109.574219 148.988281 109.550781 150.109375 110.734375 C 150.8125 111.472656 147.59375 115.453125 144.824219 118.414062 C 140.929688 122.582031 135.414062 127.476562 129.308594 132.328125 C 115.230469 143.511719 98.230469 154.355469 90.910156 155.398438 C 79.296875 157.054688 73.960938 155.742188 69.652344 154.683594 C 63.582031 153.191406 59.289062 152.132812 46.246094 158.109375 C 46.074219 158.191406 45.867188 158.117188 45.785156 157.941406 L 33.835938 132.625 C 33.757812 132.453125 33.824219 132.253906 33.988281 132.164062 Z M 124.75 29.023438 C 124.75 40.441406 134.007812 49.699219 145.425781 49.699219 C 156.84375 49.699219 166.101562 40.441406 166.101562 29.023438 C 166.101562 17.605469 156.84375 8.347656 145.425781 8.347656 C 134.007812 8.351562 124.75 17.605469 124.75 29.023438 Z M 133.863281 26.210938 C 134.941406 25.242188 136.597656 25.332031 137.566406 26.40625 L 141.980469 31.304688 C 142.113281 31.449219 142.339844 31.457031 142.484375 31.320312 L 153.414062 20.832031 C 154.457031 19.828125 156.113281 19.863281 157.117188 20.902344 C 158.117188 21.945312 158.085938 23.601562 157.046875 24.605469 L 143.992188 37.128906 C 142.824219 38.273438 141.140625 38.199219 140.136719 37.082031 L 133.667969 29.914062 C 132.703125 28.835938 132.789062 27.179688 133.863281 26.210938 Z M 106.441406 81.203125 C 106.441406 90.167969 99.171875 97.433594 90.210938 97.433594 C 81.246094 97.433594 73.980469 90.167969 73.980469 81.203125 C 73.980469 72.242188 81.246094 64.972656 90.210938 64.972656 C 99.171875 64.972656 106.441406 72.242188 106.441406 81.203125 Z M 59.152344 88.410156 L 61.199219 86.136719 C 61.390625 85.921875 61.171875 85.132812 61.101562 84.511719 C 61.082031 84.335938 60.933594 84.203125 60.753906 84.203125 L 44.269531 84.203125 C 37.714844 84.203125 32.371094 78.859375 32.371094 72.304688 L 32.371094 65.550781 C 32.371094 65.207031 31.925781 65.070312 31.730469 65.351562 L 28.574219 70.019531 C 27.765625 71.21875 26.136719 71.535156 24.933594 70.726562 C 23.734375 69.917969 23.417969 68.289062 24.226562 67.085938 L 32.75 54.492188 C 33.917969 52.789062 36.074219 52.789062 37.242188 54.492188 L 45.765625 67.089844 C 46.574219 68.289062 46.257812 69.917969 45.054688 70.726562 C 43.855469 71.535156 42.226562 71.21875 41.417969 70.019531 L 38.257812 65.351562 C 38.066406 65.066406 37.621094 65.207031 37.621094 65.550781 L 37.621094 72.304688 C 37.621094 75.960938 40.609375 78.953125 44.269531 78.953125 L 60.679688 78.953125 C 60.863281 78.953125 61.011719 78.816406 61.027344 78.632812 C 61.089844 77.9375 61.175781 77.246094 61.285156 76.5625 C 61.300781 76.453125 61.269531 76.355469 61.199219 76.273438 L 54.804688 69.171875 C 54.558594 68.902344 54.519531 68.519531 54.703125 68.207031 L 61.199219 56.953125 C 61.378906 56.636719 61.730469 56.484375 62.085938 56.558594 L 71.441406 58.546875 C 71.546875 58.570312 71.648438 58.542969 71.734375 58.476562 C 74.128906 56.527344 76.832031 54.949219 79.769531 53.828125 C 79.871094 53.789062 79.941406 53.714844 79.976562 53.609375 L 82.925781 44.523438 C 83.039062 44.179688 83.347656 43.953125 83.710938 43.953125 L 96.707031 43.953125 C 97.070312 43.953125 97.378906 44.179688 97.492188 44.523438 L 100.445312 53.609375 C 100.476562 53.714844 100.550781 53.789062 100.652344 53.828125 C 103.585938 54.949219 106.292969 56.527344 108.6875 58.476562 C 108.769531 58.546875 108.871094 58.570312 108.980469 58.546875 L 118.335938 56.558594 C 118.691406 56.484375 119.039062 56.636719 119.21875 56.953125 L 125.71875 68.207031 C 125.898438 68.519531 125.859375 68.902344 125.617188 69.171875 L 119.222656 76.273438 C 119.148438 76.355469 119.117188 76.453125 119.136719 76.5625 C 119.246094 77.246094 119.332031 77.9375 119.390625 78.632812 C 119.40625 78.816406 119.558594 78.953125 119.738281 78.953125 L 136.148438 78.953125 C 139.808594 78.953125 142.800781 75.960938 142.800781 72.304688 L 142.800781 65.550781 C 142.800781 65.207031 142.351562 65.070312 142.160156 65.355469 L 139.003906 70.019531 C 138.195312 71.222656 136.5625 71.539062 135.363281 70.726562 C 134.164062 69.917969 133.847656 68.289062 134.65625 67.089844 L 143.179688 54.492188 C 144.34375 52.789062 146.503906 52.789062 147.671875 54.492188 L 156.191406 67.089844 C 157 68.289062 156.683594 69.917969 155.484375 70.726562 C 154.285156 71.535156 152.65625 71.21875 151.84375 70.019531 L 148.6875 65.351562 C 148.496094 65.066406 148.046875 65.207031 148.046875 65.550781 L 148.046875 72.304688 C 148.046875 78.859375 142.707031 84.203125 136.148438 84.203125 L 119.664062 84.203125 C 119.484375 84.203125 119.335938 84.335938 119.316406 84.511719 C 119.246094 85.132812 119.027344 85.921875 119.222656 86.136719 L 125.617188 93.238281 C 125.859375 93.507812 125.898438 93.886719 125.71875 94.203125 L 119.21875 105.457031 C 119.039062 105.773438 118.691406 105.925781 118.335938 105.851562 L 108.984375 103.863281 C 108.875 103.839844 108.773438 103.867188 108.6875 103.933594 C 106.292969 105.882812 103.585938 107.460938 100.652344 108.582031 C 100.546875 108.621094 100.476562 108.695312 100.445312 108.800781 L 97.492188 117.886719 C 97.378906 118.230469 97.070312 118.453125 96.707031 118.453125 L 83.710938 118.453125 C 83.347656 118.453125 83.039062 118.230469 82.929688 117.886719 L 79.976562 108.800781 C 79.941406 108.695312 79.871094 108.621094 79.769531 108.582031 C 76.835938 107.460938 74.128906 105.882812 71.734375 103.933594 C 71.648438 103.863281 71.546875 103.839844 71.441406 103.863281 L 62.085938 105.851562 C 61.730469 105.925781 61.382812 105.773438 61.199219 105.457031 L 54.703125 94.203125 C 54.519531 93.886719 54.558594 93.507812 54.804688 93.238281 Z M 43.542969 20.476562 C 44.566406 21.503906 44.566406 23.164062 43.542969 24.1875 L 38.953125 28.777344 C 38.816406 28.914062 38.816406 29.136719 38.953125 29.273438 L 43.542969 33.859375 C 44.566406 34.886719 44.566406 36.546875 43.542969 37.570312 C 42.519531 38.597656 40.855469 38.597656 39.832031 37.570312 L 35.242188 32.984375 C 35.105469 32.847656 34.882812 32.847656 34.75 32.984375 L 30.160156 37.570312 C 29.132812 38.597656 27.472656 38.597656 26.449219 37.570312 C 25.421875 36.546875 25.421875 34.886719 26.449219 33.859375 L 31.035156 29.273438 C 31.171875 29.136719 31.171875 28.914062 31.035156 28.777344 L 26.449219 24.1875 C 25.421875 23.164062 25.421875 21.503906 26.449219 20.476562 C 27.472656 19.453125 29.136719 19.453125 30.160156 20.476562 L 34.75 25.066406 C 34.882812 25.203125 35.105469 25.203125 35.242188 25.066406 L 39.832031 20.476562 C 40.855469 19.453125 42.519531 19.453125 43.542969 20.476562 Z M 43.542969 20.476562 " fill-opacity="1" fill-rule="evenodd"/></g></svg>