<svg xmlns="http://www.w3.org/2000/svg" xmlns:xlink="http://www.w3.org/1999/xlink" width="200" zoomAndPan="magnify" viewBox="0 0 150 149.999998" height="200" preserveAspectRatio="xMidYMid meet" version="1.0"><defs><clipPath id="bfb0684623"><path d="M 91 22 L 141.445312 22 L 141.445312 65 L 91 65 Z M 91 22 " clip-rule="nonzero"/></clipPath><clipPath id="fa901b09d5"><path d="M 91 81 L 141.445312 81 L 141.445312 123 L 91 123 Z M 91 81 " clip-rule="nonzero"/></clipPath><clipPath id="8ea4e3de53"><path d="M 8.695312 30 L 85 30 L 85 59 L 8.695312 59 Z M 8.695312 30 " clip-rule="nonzero"/></clipPath><clipPath id="63650ff9ec"><path d="M 8.695312 43 L 85 43 L 85 74 L 8.695312 74 Z M 8.695312 43 " clip-rule="nonzero"/></clipPath><clipPath id="f583e8507c"><path d="M 8.695312 61 L 85 61 L 85 80 L 8.695312 80 Z M 8.695312 61 " clip-rule="nonzero"/></clipPath><clipPath id="3e04169197"><path d="M 8.695312 65 L 85 65 L 85 95 L 8.695312 95 Z M 8.695312 65 " clip-rule="nonzero"/></clipPath><clipPath id="47bb00a9d3"><path d="M 8.695312 84 L 85 84 L 85 103 L 8.695312 103 Z M 8.695312 84 " clip-rule="nonzero"/></clipPath><clipPath id="981b24ed87"><path d="M 8.695312 89 L 85 89 L 85 119 L 8.695312 119 Z M 8.695312 89 " clip-rule="nonzero"/></clipPath><clipPath id="4a8592ffe6"><path d="M 44 13.828125 L 84 13.828125 L 84 45 L 44 45 Z M 44 13.828125 " clip-rule="nonzero"/></clipPath></defs><rect x="-15" width="180" fill="#ffffff" y="-15" height="179.999997" fill-opacity="1"/><rect x="-15" width="180" fill="#0f1c3f" y="-15" height="179.999997" fill-opacity="1"/><path fill="#1a6bff" d="M 133.039062 67.457031 L 96.976562 67.457031 C 94.234375 67.457031 91.855469 65.488281 91.363281 62.773438 L 86.628906 37.007812 C 86.394531 35.6875 86.730469 34.34375 87.609375 33.308594 C 88.464844 32.273438 89.734375 31.679688 91.078125 31.679688 L 106.804688 31.679688 C 107.660156 31.679688 108.359375 32.375 108.359375 33.230469 C 108.359375 34.082031 107.660156 34.78125 106.804688 34.78125 L 91.050781 34.78125 C 90.484375 34.78125 90.121094 35.09375 89.964844 35.300781 C 89.808594 35.480469 89.550781 35.894531 89.65625 36.464844 L 94.390625 62.230469 C 94.621094 63.472656 95.683594 64.351562 96.949219 64.351562 L 133.011719 64.351562 C 133.554688 64.351562 133.867188 64.039062 134.019531 63.859375 C 134.175781 63.679688 134.410156 63.289062 134.28125 62.773438 L 129.210938 37.835938 C 129.027344 36.980469 128.277344 36.335938 127.398438 36.335938 L 114.824219 36.335938 C 112.730469 36.335938 110.894531 35.066406 110.117188 33.125 C 109.808594 32.296875 109.238281 31.601562 108.511719 31.109375 C 107.789062 30.617188 106.9375 30.359375 106.054688 30.359375 L 92.941406 30.359375 C 92.085938 30.359375 91.386719 29.660156 91.386719 28.804688 C 91.386719 27.953125 92.085938 27.253906 92.941406 27.253906 L 106.054688 27.253906 C 107.554688 27.253906 109.03125 27.695312 110.273438 28.546875 C 111.515625 29.402344 112.472656 30.589844 113.015625 31.988281 C 113.300781 32.738281 114.023438 33.230469 114.824219 33.230469 L 127.398438 33.230469 C 129.753906 33.230469 131.796875 34.910156 132.261719 37.214844 L 137.332031 62.152344 C 137.589844 63.445312 137.253906 64.789062 136.425781 65.824219 C 135.625 66.859375 134.382812 67.457031 133.039062 67.457031 Z M 133.039062 67.457031 " fill-opacity="1" fill-rule="nonzero"/><g clip-path="url(#bfb0684623)"><path fill="#1a6bff" d="M 135.859375 64.039062 C 135.78125 64.039062 135.726562 64.039062 135.652344 64.015625 C 134.796875 63.910156 134.203125 63.136719 134.304688 62.28125 L 138.082031 33.617188 C 138.132812 33.152344 138.003906 32.710938 137.71875 32.375 C 137.410156 32.039062 136.996094 31.832031 136.554688 31.832031 L 120.230469 31.832031 C 118.058594 31.832031 116.015625 30.773438 114.773438 28.960938 L 113.039062 26.476562 C 112.730469 26.039062 112.265625 25.960938 110.789062 25.988281 C 110.582031 25.988281 110.375 25.988281 110.144531 25.988281 L 95.835938 25.988281 C 95.113281 25.988281 94.492188 26.582031 94.492188 27.332031 L 94.492188 33.230469 C 94.492188 34.082031 93.792969 34.78125 92.941406 34.78125 C 92.085938 34.78125 91.386719 34.082031 91.386719 33.230469 L 91.386719 27.332031 C 91.386719 24.875 93.378906 22.882812 95.835938 22.882812 L 110.144531 22.882812 C 110.351562 22.882812 110.53125 22.882812 110.738281 22.882812 C 112.316406 22.855469 114.308594 22.832031 115.601562 24.71875 L 117.335938 27.203125 C 117.980469 28.160156 119.066406 28.730469 120.230469 28.730469 L 136.554688 28.730469 C 137.902344 28.730469 139.195312 29.324219 140.074219 30.332031 C 140.953125 31.339844 141.367188 32.6875 141.1875 34.03125 L 137.410156 62.667969 C 137.28125 63.472656 136.609375 64.039062 135.859375 64.039062 Z M 135.859375 64.039062 " fill-opacity="1" fill-rule="nonzero"/></g><path fill="#1a6bff" d="M 133.039062 125.945312 L 96.976562 125.945312 C 94.234375 125.945312 91.855469 123.980469 91.363281 121.261719 L 86.628906 95.496094 C 86.394531 94.179688 86.730469 92.832031 87.609375 91.796875 C 88.464844 90.761719 89.734375 90.167969 91.078125 90.167969 L 106.804688 90.167969 C 107.660156 90.167969 108.359375 90.867188 108.359375 91.71875 C 108.359375 92.574219 107.660156 93.273438 106.804688 93.273438 L 91.050781 93.273438 C 90.484375 93.273438 90.121094 93.582031 89.964844 93.789062 C 89.808594 93.972656 89.550781 94.386719 89.65625 94.953125 L 94.390625 120.71875 C 94.621094 121.960938 95.683594 122.839844 96.949219 122.839844 L 133.011719 122.839844 C 133.554688 122.839844 133.867188 122.53125 134.019531 122.351562 C 134.175781 122.167969 134.410156 121.78125 134.28125 121.261719 L 129.210938 96.324219 C 129.027344 95.472656 128.277344 94.824219 127.398438 94.824219 L 114.824219 94.824219 C 112.730469 94.824219 110.894531 93.558594 110.117188 91.617188 C 109.808594 90.789062 109.238281 90.089844 108.511719 89.597656 C 107.789062 89.109375 106.9375 88.847656 106.054688 88.847656 L 92.941406 88.847656 C 92.085938 88.847656 91.386719 88.152344 91.386719 87.296875 C 91.386719 86.441406 92.085938 85.746094 92.941406 85.746094 L 106.054688 85.746094 C 107.554688 85.746094 109.03125 86.183594 110.273438 87.039062 C 111.515625 87.890625 112.472656 89.082031 113.015625 90.480469 C 113.300781 91.230469 114.023438 91.71875 114.824219 91.71875 L 127.398438 91.71875 C 129.753906 91.71875 131.796875 93.402344 132.261719 95.703125 L 137.332031 120.640625 C 137.589844 121.9375 137.253906 123.28125 136.425781 124.316406 C 135.625 125.351562 134.382812 125.945312 133.039062 125.945312 Z M 133.039062 125.945312 " fill-opacity="1" fill-rule="nonzero"/><g clip-path="url(#fa901b09d5)"><path fill="#1a6bff" d="M 135.859375 122.503906 C 135.78125 122.503906 135.726562 122.503906 135.652344 122.480469 C 134.796875 122.375 134.203125 121.597656 134.304688 120.746094 L 138.082031 92.082031 C 138.132812 91.617188 138.003906 91.175781 137.71875 90.839844 C 137.410156 90.503906 136.996094 90.296875 136.554688 90.296875 L 120.230469 90.296875 C 118.058594 90.296875 116.015625 89.238281 114.773438 87.425781 L 113.039062 84.941406 C 112.730469 84.503906 112.265625 84.425781 110.789062 84.453125 C 110.582031 84.453125 110.375 84.453125 110.144531 84.453125 L 95.835938 84.453125 C 95.113281 84.453125 94.492188 85.046875 94.492188 85.796875 L 94.492188 91.695312 C 94.492188 92.546875 93.792969 93.246094 92.941406 93.246094 C 92.085938 93.246094 91.386719 92.546875 91.386719 91.695312 L 91.386719 85.796875 C 91.386719 83.339844 93.378906 81.347656 95.835938 81.347656 L 110.144531 81.347656 C 110.351562 81.347656 110.53125 81.347656 110.738281 81.347656 C 112.316406 81.320312 114.308594 81.296875 115.601562 83.183594 L 117.335938 85.667969 C 117.980469 86.625 119.066406 87.195312 120.230469 87.195312 L 136.554688 87.195312 C 137.902344 87.195312 139.195312 87.789062 140.074219 88.796875 C 140.953125 89.804688 141.367188 91.152344 141.1875 92.496094 L 137.410156 121.132812 C 137.28125 121.9375 136.609375 122.503906 135.859375 122.503906 Z M 135.859375 122.503906 " fill-opacity="1" fill-rule="nonzero"/></g><g clip-path="url(#8ea4e3de53)"><path fill="#1a6bff" d="M 46.480469 58.890625 C 36.648438 58.890625 27.386719 57.519531 20.375 55.0625 C 12.902344 52.398438 8.761719 48.675781 8.761719 44.535156 C 8.761719 40.394531 12.902344 36.671875 20.375 34.03125 C 27.363281 31.546875 36.648438 30.203125 46.480469 30.203125 C 56.308594 30.203125 65.570312 31.574219 72.582031 34.03125 C 80.082031 36.695312 84.195312 40.421875 84.195312 44.535156 C 84.195312 48.648438 80.058594 52.398438 72.582031 55.039062 C 65.570312 57.519531 56.308594 58.890625 46.480469 58.890625 Z M 46.480469 33.308594 C 26.09375 33.308594 11.867188 39.230469 11.867188 44.535156 C 11.867188 49.839844 26.09375 55.789062 46.480469 55.789062 C 66.863281 55.789062 81.09375 49.863281 81.09375 44.535156 C 81.09375 39.207031 66.890625 33.308594 46.480469 33.308594 Z M 46.480469 33.308594 " fill-opacity="1" fill-rule="nonzero"/></g><g clip-path="url(#63650ff9ec)"><path fill="#1a6bff" d="M 46.480469 73.507812 C 36.648438 73.507812 27.386719 72.136719 20.375 69.679688 C 12.902344 67.015625 8.761719 63.289062 8.761719 59.175781 L 8.761719 44.5625 C 8.761719 43.707031 9.460938 43.007812 10.3125 43.007812 C 11.167969 43.007812 11.867188 43.707031 11.867188 44.5625 L 11.867188 59.175781 C 11.867188 64.507812 26.09375 70.429688 46.480469 70.429688 C 66.863281 70.429688 81.09375 64.507812 81.09375 59.175781 L 81.09375 44.5625 C 81.09375 43.707031 81.789062 43.007812 82.644531 43.007812 C 83.496094 43.007812 84.195312 43.707031 84.195312 44.5625 L 84.195312 59.175781 C 84.195312 63.289062 80.058594 67.042969 72.582031 69.679688 C 65.570312 72.164062 56.308594 73.507812 46.480469 73.507812 Z M 46.480469 73.507812 " fill-opacity="1" fill-rule="nonzero"/></g><g clip-path="url(#f583e8507c)"><path fill="#1a6bff" d="M 46.480469 80 C 28.1875 80 8.761719 75.292969 8.761719 66.574219 C 8.761719 64.945312 9.460938 63.394531 10.855469 61.945312 C 11.453125 61.324219 12.433594 61.296875 13.054688 61.894531 C 13.675781 62.488281 13.703125 63.472656 13.109375 64.09375 C 12.304688 64.945312 11.890625 65.773438 11.890625 66.574219 C 11.890625 68.957031 15.460938 71.542969 21.410156 73.484375 C 28.085938 75.679688 37.011719 76.871094 46.503906 76.871094 C 56 76.871094 64.921875 75.65625 71.597656 73.484375 C 77.574219 71.515625 81.117188 68.929688 81.117188 66.574219 C 81.117188 65.773438 80.703125 64.945312 79.902344 64.09375 C 79.308594 63.472656 79.332031 62.488281 79.953125 61.894531 C 80.574219 61.296875 81.558594 61.324219 82.152344 61.945312 C 83.550781 63.394531 84.25 64.945312 84.25 66.574219 C 84.195312 75.292969 64.769531 80 46.480469 80 Z M 46.480469 80 " fill-opacity="1" fill-rule="nonzero"/></g><g clip-path="url(#3e04169197)"><path fill="#1a6bff" d="M 46.480469 94.203125 C 32.640625 94.203125 19.988281 91.460938 13.496094 87.039062 C 9.589844 84.375 8.761719 81.683594 8.761719 79.871094 L 8.761719 66.574219 C 8.761719 65.722656 9.460938 65.023438 10.3125 65.023438 C 11.167969 65.023438 11.867188 65.722656 11.867188 66.574219 L 11.867188 79.871094 C 11.867188 81.785156 13.703125 83.441406 15.253906 84.476562 C 21.257812 88.566406 33.234375 91.125 46.480469 91.125 C 59.722656 91.125 71.703125 88.589844 77.703125 84.503906 C 79.253906 83.441406 81.09375 81.8125 81.09375 79.898438 L 81.09375 66.601562 C 81.09375 65.746094 81.789062 65.050781 82.644531 65.050781 C 83.496094 65.050781 84.195312 65.746094 84.195312 66.601562 L 84.195312 79.898438 C 84.195312 81.710938 83.367188 84.425781 79.460938 87.0625 C 72.96875 91.460938 60.320312 94.203125 46.480469 94.203125 Z M 46.480469 94.203125 " fill-opacity="1" fill-rule="nonzero"/></g><g clip-path="url(#47bb00a9d3)"><path fill="#1a6bff" d="M 46.480469 102.507812 C 36.675781 102.507812 27.4375 101.394531 20.480469 99.402344 C 12.824219 97.203125 8.761719 94.125 8.761719 90.554688 C 8.761719 88.253906 10.390625 86.183594 13.625 84.398438 C 14.375 83.984375 15.332031 84.246094 15.746094 84.996094 C 16.160156 85.746094 15.902344 86.675781 15.152344 87.117188 C 13.054688 88.28125 11.890625 89.496094 11.890625 90.554688 C 11.890625 94.253906 25.058594 99.402344 46.503906 99.402344 C 67.949219 99.402344 81.117188 94.253906 81.117188 90.554688 C 81.117188 89.496094 79.953125 88.28125 77.859375 87.117188 C 77.109375 86.703125 76.847656 85.746094 77.261719 84.996094 C 77.675781 84.246094 78.632812 83.984375 79.386719 84.398438 C 82.617188 86.183594 84.25 88.253906 84.25 90.554688 C 84.25 94.152344 80.1875 97.203125 72.53125 99.402344 C 65.519531 101.394531 56.285156 102.507812 46.480469 102.507812 Z M 46.480469 102.507812 " fill-opacity="1" fill-rule="nonzero"/></g><g clip-path="url(#981b24ed87)"><path fill="#1a6bff" d="M 46.480469 118.625 C 36.648438 118.625 27.386719 117.253906 20.375 114.796875 C 12.902344 112.132812 8.761719 108.40625 8.761719 104.292969 L 8.761719 90.554688 C 8.761719 89.703125 9.460938 89.003906 10.3125 89.003906 C 11.167969 89.003906 11.867188 89.703125 11.867188 90.554688 L 11.867188 104.292969 C 11.867188 109.621094 26.09375 115.546875 46.480469 115.546875 C 66.863281 115.546875 81.09375 109.621094 81.09375 104.292969 L 81.09375 90.554688 C 81.09375 89.703125 81.789062 89.003906 82.644531 89.003906 C 83.496094 89.003906 84.195312 89.703125 84.195312 90.554688 L 84.195312 104.292969 C 84.195312 108.40625 80.058594 112.15625 72.582031 114.796875 C 65.570312 117.28125 56.308594 118.625 46.480469 118.625 Z M 46.480469 118.625 " fill-opacity="1" fill-rule="nonzero"/></g><path fill="#1a6bff" d="M 18.359375 89.46875 C 17.503906 89.46875 16.808594 88.769531 16.808594 87.917969 L 16.808594 74.050781 C 16.808594 73.199219 17.503906 72.5 18.359375 72.5 C 19.210938 72.5 19.910156 73.199219 19.910156 74.050781 L 19.910156 87.917969 C 19.910156 88.769531 19.210938 89.46875 18.359375 89.46875 Z M 18.359375 89.46875 " fill-opacity="1" fill-rule="nonzero"/><path fill="#1a6bff" d="M 18.359375 68.773438 C 17.503906 68.773438 16.808594 68.074219 16.808594 67.222656 L 16.808594 52.605469 C 16.808594 51.753906 17.503906 51.054688 18.359375 51.054688 C 19.210938 51.054688 19.910156 51.753906 19.910156 52.605469 L 19.910156 67.222656 C 19.910156 68.074219 19.210938 68.773438 18.359375 68.773438 Z M 18.359375 68.773438 " fill-opacity="1" fill-rule="nonzero"/><path fill="#1a6bff" d="M 18.359375 113.890625 C 17.503906 113.890625 16.808594 113.191406 16.808594 112.339844 L 16.808594 97.101562 C 16.808594 96.246094 17.503906 95.550781 18.359375 95.550781 C 19.210938 95.550781 19.910156 96.246094 19.910156 97.101562 L 19.910156 112.339844 C 19.910156 113.191406 19.210938 113.890625 18.359375 113.890625 Z M 18.359375 113.890625 " fill-opacity="1" fill-rule="nonzero"/><path fill="#1a6bff" d="M 73.769531 89.804688 C 72.917969 89.804688 72.21875 89.109375 72.21875 88.253906 L 72.21875 74.363281 C 72.21875 73.507812 72.917969 72.808594 73.769531 72.808594 C 74.625 72.808594 75.324219 73.507812 75.324219 74.363281 L 75.324219 88.253906 C 75.324219 89.109375 74.625 89.804688 73.769531 89.804688 Z M 73.769531 89.804688 " fill-opacity="1" fill-rule="nonzero"/><path fill="#1a6bff" d="M 73.769531 113.890625 C 72.917969 113.890625 72.21875 113.191406 72.21875 112.339844 L 72.21875 97.386719 C 72.21875 96.53125 72.917969 95.832031 73.769531 95.832031 C 74.625 95.832031 75.324219 96.53125 75.324219 97.386719 L 75.324219 112.339844 C 75.324219 113.191406 74.625 113.890625 73.769531 113.890625 Z M 73.769531 113.890625 " fill-opacity="1" fill-rule="nonzero"/><path fill="#1a6bff" d="M 73.769531 69.109375 C 72.917969 69.109375 72.21875 68.414062 72.21875 67.558594 L 72.21875 52.941406 C 72.21875 52.089844 72.917969 51.390625 73.769531 51.390625 C 74.625 51.390625 75.324219 52.089844 75.324219 52.941406 L 75.324219 67.558594 C 75.324219 68.414062 74.625 69.109375 73.769531 69.109375 Z M 73.769531 69.109375 " fill-opacity="1" fill-rule="nonzero"/><g clip-path="url(#4a8592ffe6)"><path fill="#1a6bff" d="M 46.480469 44.691406 C 45.625 44.691406 44.925781 43.992188 44.925781 43.136719 L 44.925781 15.378906 C 44.925781 14.527344 45.625 13.828125 46.480469 13.828125 L 76.589844 13.828125 C 77.003906 13.828125 77.394531 13.984375 77.675781 14.292969 L 82.617188 19.234375 C 83.214844 19.828125 83.214844 20.8125 82.617188 21.433594 C 82.023438 22.027344 81.039062 22.027344 80.417969 21.433594 L 75.917969 16.933594 L 48.03125 16.933594 L 48.03125 43.136719 C 48.03125 43.992188 47.332031 44.691406 46.480469 44.691406 Z M 46.480469 44.691406 " fill-opacity="1" fill-rule="nonzero"/></g><path fill="#1a6bff" d="M 87.09375 27.640625 C 87.042969 27.640625 86.964844 27.640625 86.914062 27.640625 L 76.796875 26.425781 C 76.203125 26.347656 75.710938 25.960938 75.503906 25.390625 C 75.296875 24.824219 75.453125 24.203125 75.867188 23.789062 L 84.792969 14.863281 C 85.207031 14.449219 85.828125 14.292969 86.394531 14.5 C 86.964844 14.707031 87.351562 15.199219 87.429688 15.792969 L 88.621094 25.910156 C 88.671875 26.375 88.515625 26.839844 88.179688 27.175781 C 87.894531 27.488281 87.507812 27.640625 87.09375 27.640625 Z M 80.34375 23.734375 L 85.335938 24.332031 L 84.738281 19.339844 Z M 80.34375 23.734375 " fill-opacity="1" fill-rule="nonzero"/><path fill="#1a6bff" d="M 76.589844 135 L 46.480469 135 C 45.625 135 44.925781 134.300781 44.925781 133.449219 L 44.925781 105.691406 C 44.925781 104.835938 45.625 104.136719 46.480469 104.136719 C 47.332031 104.136719 48.03125 104.835938 48.03125 105.691406 L 48.03125 131.894531 L 75.945312 131.894531 L 80.445312 127.394531 C 81.039062 126.800781 82.023438 126.800781 82.644531 127.394531 C 83.238281 127.988281 83.238281 128.972656 82.644531 129.59375 L 77.703125 134.535156 C 77.394531 134.820312 77.003906 135 76.589844 135 Z M 76.589844 135 " fill-opacity="1" fill-rule="nonzero"/><path fill="#1a6bff" d="M 85.902344 134.40625 C 85.488281 134.40625 85.101562 134.25 84.816406 133.9375 L 75.890625 125.015625 C 75.476562 124.601562 75.324219 123.980469 75.53125 123.410156 C 75.738281 122.839844 76.230469 122.453125 76.824219 122.375 L 86.9375 121.1875 C 87.402344 121.132812 87.871094 121.289062 88.207031 121.625 C 88.542969 121.960938 88.699219 122.425781 88.644531 122.894531 L 87.457031 133.007812 C 87.378906 133.601562 86.992188 134.09375 86.421875 134.300781 C 86.238281 134.378906 86.058594 134.40625 85.902344 134.40625 Z M 80.34375 125.09375 L 84.738281 129.488281 L 85.335938 124.496094 Z M 80.34375 125.09375 " fill-opacity="1" fill-rule="nonzero"/></svg>