<svg xmlns="http://www.w3.org/2000/svg" xmlns:xlink="http://www.w3.org/1999/xlink" width="200" zoomAndPan="magnify" viewBox="0 0 150 149.999998" height="200" preserveAspectRatio="xMidYMid meet" version="1.0"><defs><clipPath id="c6c6cb24fa"><path d="M 8.4375 22.25 L 141.1875 22.25 L 141.1875 128 L 8.4375 128 Z M 8.4375 22.25 " clip-rule="nonzero"/></clipPath><clipPath id="5e73f591b8"><path d="M 8.4375 45 L 141.1875 45 L 141.1875 50 L 8.4375 50 Z M 8.4375 45 " clip-rule="nonzero"/></clipPath></defs><rect x="-15" width="180" fill="#ffffff" y="-15" height="179.999997" fill-opacity="1"/><rect x="-15" width="180" fill="#0f1c3f" y="-15" height="179.999997" fill-opacity="1"/><g clip-path="url(#c6c6cb24fa)"><path fill="#1a6bff" d="M 128.140625 127.660156 L 21.851562 127.660156 C 14.453125 127.660156 8.4375 121.644531 8.4375 114.246094 L 8.4375 35.746094 C 8.4375 28.347656 14.453125 22.332031 21.851562 22.332031 L 128.109375 22.332031 C 135.507812 22.332031 141.523438 28.347656 141.523438 35.746094 L 141.523438 114.246094 C 141.550781 121.644531 135.539062 127.660156 128.140625 127.660156 Z M 21.851562 26.652344 C 16.855469 26.652344 12.757812 30.71875 12.757812 35.746094 L 12.757812 114.246094 C 12.757812 119.246094 16.824219 123.339844 21.851562 123.339844 L 128.109375 123.339844 C 133.109375 123.339844 137.203125 119.273438 137.203125 114.246094 L 137.203125 35.746094 C 137.203125 30.746094 133.136719 26.652344 128.109375 26.652344 Z M 21.851562 26.652344 " fill-opacity="1" fill-rule="nonzero"/></g><g clip-path="url(#5e73f591b8)"><path fill="#1a6bff" d="M 139.378906 49.808594 L 10.613281 49.808594 C 9.425781 49.808594 8.4375 48.847656 8.4375 47.632812 C 8.4375 46.417969 9.398438 45.460938 10.613281 45.460938 L 139.378906 45.460938 C 140.5625 45.460938 141.550781 46.417969 141.550781 47.632812 C 141.550781 48.847656 140.5625 49.808594 139.378906 49.808594 Z M 139.378906 49.808594 " fill-opacity="1" fill-rule="nonzero"/></g><path fill="#1a6bff" d="M 85.894531 39.332031 C 84.710938 39.332031 83.722656 38.371094 83.722656 37.15625 L 83.722656 37.074219 C 83.722656 35.886719 84.679688 34.898438 85.894531 34.898438 C 87.109375 34.898438 88.070312 35.859375 88.070312 37.074219 L 88.070312 37.15625 C 88.070312 38.371094 87.082031 39.332031 85.894531 39.332031 Z M 85.894531 39.332031 " fill-opacity="1" fill-rule="nonzero"/><path fill="#1a6bff" d="M 104.390625 39.332031 C 103.207031 39.332031 102.21875 38.371094 102.21875 37.15625 L 102.21875 37.074219 C 102.21875 35.886719 103.175781 34.898438 104.390625 34.898438 C 105.605469 34.898438 106.566406 35.859375 106.566406 37.074219 L 106.566406 37.15625 C 106.566406 38.371094 105.605469 39.332031 104.390625 39.332031 Z M 104.390625 39.332031 " fill-opacity="1" fill-rule="nonzero"/><path fill="#1a6bff" d="M 122.886719 39.332031 C 121.699219 39.332031 120.710938 38.371094 120.710938 37.15625 L 120.710938 37.074219 C 120.710938 35.886719 121.671875 34.898438 122.886719 34.898438 C 124.101562 34.898438 125.0625 35.859375 125.0625 37.074219 L 125.0625 37.15625 C 125.0625 38.371094 124.101562 39.332031 122.886719 39.332031 Z M 122.886719 39.332031 " fill-opacity="1" fill-rule="nonzero"/><path fill="#1a6bff" d="M 66.664062 39.304688 L 27.105469 39.304688 C 25.917969 39.304688 24.929688 38.34375 24.929688 37.128906 C 24.929688 35.914062 25.890625 34.957031 27.105469 34.957031 L 66.664062 34.957031 C 67.851562 34.957031 68.839844 35.914062 68.839844 37.128906 C 68.839844 38.34375 67.851562 39.304688 66.664062 39.304688 Z M 66.664062 39.304688 " fill-opacity="1" fill-rule="nonzero"/><path fill="#1a6bff" d="M 47.351562 115.066406 L 33.34375 115.066406 C 32.160156 115.066406 31.171875 114.105469 31.171875 112.890625 L 31.171875 87.761719 C 31.171875 86.574219 32.128906 85.585938 33.34375 85.585938 L 47.351562 85.585938 C 48.535156 85.585938 49.523438 86.546875 49.523438 87.761719 L 49.523438 112.890625 C 49.523438 114.105469 48.535156 115.066406 47.351562 115.066406 Z M 35.492188 110.746094 L 45.175781 110.746094 L 45.175781 89.960938 L 35.492188 89.960938 Z M 35.492188 110.746094 " fill-opacity="1" fill-rule="nonzero"/><path fill="#1a6bff" d="M 70.449219 115.066406 L 56.441406 115.066406 C 55.257812 115.066406 54.269531 114.105469 54.269531 112.890625 L 54.269531 78.921875 C 54.269531 77.734375 55.230469 76.746094 56.441406 76.746094 L 70.449219 76.746094 C 71.636719 76.746094 72.625 77.707031 72.625 78.921875 L 72.625 112.921875 C 72.625 114.105469 71.664062 115.066406 70.449219 115.066406 Z M 58.617188 110.746094 L 68.304688 110.746094 L 68.304688 81.066406 L 58.617188 81.066406 Z M 58.617188 110.746094 " fill-opacity="1" fill-rule="nonzero"/><path fill="#1a6bff" d="M 93.546875 115.066406 L 79.542969 115.066406 C 78.355469 115.066406 77.367188 114.105469 77.367188 112.890625 L 77.367188 67.570312 C 77.367188 66.382812 78.328125 65.394531 79.542969 65.394531 L 93.546875 65.394531 C 94.734375 65.394531 95.722656 66.355469 95.722656 67.570312 L 95.722656 112.921875 C 95.722656 114.105469 94.761719 115.066406 93.546875 115.066406 Z M 81.714844 110.746094 L 91.375 110.746094 L 91.375 69.746094 L 81.6875 69.746094 L 81.6875 110.746094 Z M 81.714844 110.746094 " fill-opacity="1" fill-rule="nonzero"/><path fill="#1a6bff" d="M 116.644531 115.066406 L 102.640625 115.066406 C 101.453125 115.066406 100.464844 114.105469 100.464844 112.890625 L 100.464844 59.296875 C 100.464844 58.109375 101.425781 57.121094 102.640625 57.121094 L 116.644531 57.121094 C 117.832031 57.121094 118.820312 58.082031 118.820312 59.296875 L 118.820312 112.890625 C 118.820312 114.105469 117.859375 115.066406 116.644531 115.066406 Z M 104.816406 110.746094 L 114.5 110.746094 L 114.5 61.46875 L 104.816406 61.46875 Z M 104.816406 110.746094 " fill-opacity="1" fill-rule="nonzero"/></svg>