<svg width="730" height="615" viewBox="0 0 730 615" fill="none" xmlns="http://www.w3.org/2000/svg">
<path d="M510.68 277.159H112.523" stroke="white" stroke-width="10"/>
<ellipse cx="113.923" cy="274.655" rx="27.1245" ry="28.2052" fill="white"/>
<path d="M502.024 361.213H31.7371" stroke="white" stroke-width="10"/>
<ellipse cx="29.8369" cy="355.51" rx="27.1245" ry="28.2052" fill="white"/>
<path d="M444.32 428.456H168.784L27.4092 589.838" stroke="white" stroke-width="10"/>
<ellipse cx="27.1245" cy="583.973" rx="27.1245" ry="28.2052" fill="white"/>
<path d="M494.811 214.959H180.325L36.0647 40.1278" stroke="white" stroke-width="10"/>
<path d="M29.8374 4.82529C44.8176 4.82555 56.9613 17.4533 56.9614 33.0304C56.9614 48.6075 44.8177 61.2352 29.8374 61.2354C14.8569 61.2354 2.7124 48.6077 2.7124 33.0304C2.71248 17.4531 14.857 4.82529 29.8374 4.82529Z" fill="white"/>
<path d="M29.8374 4.82529C44.8176 4.82555 56.9613 17.4533 56.9614 33.0304C56.9614 48.6075 44.8177 61.2352 29.8374 61.2354C14.8569 61.2354 2.7124 48.6077 2.7124 33.0304C2.71248 17.4531 14.857 4.82529 29.8374 4.82529Z" stroke="black"/>
<path d="M151.572 78.1573C111.723 38.7823 79.9229 5.10294 80.8504 3.29222C81.9766 1.15228 145.941 0 262.606 0C437.87 0 442.806 0.164611 450.226 6.58444C454.432 10.2059 480.402 36.1156 507.995 64.1983C535.555 92.2809 597.333 153.747 645.298 200.825C693.229 247.904 731.323 287.509 729.965 288.859C728.607 290.209 685.743 291.361 541.981 291.559L401.201 149.796L223.983 149.73L151.572 78.1573Z" fill="white"/>
<path d="M151.572 524.471C111.723 563.846 79.9229 597.525 80.8504 599.336C81.9766 601.476 145.941 602.628 262.606 602.628C437.87 602.628 442.806 602.464 450.226 596.044C454.432 592.422 480.402 566.513 507.995 538.43C535.555 510.347 597.333 448.882 645.298 401.803C693.229 354.724 731.323 315.119 729.965 313.769C728.607 312.419 685.743 311.267 541.981 311.069L401.201 452.832L223.983 452.898L151.572 524.471Z" fill="white"/>
<path d="M131.331 89.7069C91.4815 50.332 59.6816 16.6526 60.6091 14.8418C61.7354 12.7019 125.699 11.5496 242.365 11.5496C417.629 11.5496 422.564 11.7142 429.984 18.1341C434.191 21.7555 460.161 47.6653 487.754 75.7479C515.314 103.83 577.092 165.296 625.057 212.375C672.988 259.454 711.082 299.059 709.724 300.409C708.366 301.759 665.502 302.911 521.74 303.108L380.96 161.346L203.742 161.28L131.331 89.7069Z" fill="#1A6BFF"/>
<path d="M131.331 536.021C91.4815 575.396 59.6816 609.075 60.6091 610.886C61.7354 613.026 125.699 614.178 242.365 614.178C417.629 614.178 422.564 614.013 429.984 607.593C434.191 603.972 460.161 578.062 487.754 549.98C515.314 521.897 577.092 460.431 625.057 413.353C672.988 366.274 711.082 326.669 709.724 325.319C708.366 323.969 665.502 322.817 521.74 322.619L380.96 464.382L203.742 464.448L131.331 536.021Z" fill="#1A6BFF"/>
</svg>
