<svg xmlns="http://www.w3.org/2000/svg" xmlns:xlink="http://www.w3.org/1999/xlink" width="200" zoomAndPan="magnify" viewBox="0 0 150 149.999998" height="200" preserveAspectRatio="xMidYMid meet" version="1.0"><defs><clipPath id="ff1b3fb823"><path d="M 33 9.050781 L 46 9.050781 L 46 22 L 33 22 Z M 33 9.050781 " clip-rule="nonzero"/></clipPath><clipPath id="7805d50218"><path d="M 68 9.050781 L 82 9.050781 L 82 22 L 68 22 Z M 68 9.050781 " clip-rule="nonzero"/></clipPath><clipPath id="14e8d9401a"><path d="M 104 9.050781 L 117 9.050781 L 117 22 L 104 22 Z M 104 9.050781 " clip-rule="nonzero"/></clipPath></defs><rect x="-15" width="180" fill="#ffffff" y="-15" height="179.999997" fill-opacity="1"/><rect x="-15" width="180" fill="#0f1c3f" y="-15" height="179.999997" fill-opacity="1"/><path fill="#1a6bff" d="M 119.542969 76.890625 L 30.453125 76.890625 C 26.511719 76.890625 23.34375 73.722656 23.34375 69.78125 L 23.34375 48.921875 C 23.34375 44.980469 26.511719 41.8125 30.453125 41.8125 L 119.542969 41.8125 C 123.484375 41.8125 126.652344 44.980469 126.652344 48.921875 L 126.652344 69.78125 C 126.652344 73.722656 123.484375 76.890625 119.542969 76.890625 Z M 30.453125 44.824219 C 28.214844 44.824219 26.4375 46.679688 26.4375 48.921875 L 26.4375 69.78125 C 26.4375 71.945312 28.214844 73.800781 30.453125 73.800781 L 119.542969 73.800781 C 121.785156 73.800781 123.5625 71.945312 123.5625 69.78125 L 123.5625 48.921875 C 123.5625 46.679688 121.785156 44.824219 119.542969 44.824219 Z M 30.453125 44.824219 " fill-opacity="1" fill-rule="evenodd"/><path fill="#1a6bff" d="M 100.765625 55.332031 L 33.929688 55.332031 C 33.082031 55.332031 32.386719 54.636719 32.386719 53.789062 C 32.386719 52.9375 33.082031 52.242188 33.929688 52.242188 L 100.765625 52.242188 C 101.617188 52.242188 102.3125 52.9375 102.3125 53.789062 C 102.3125 54.636719 101.617188 55.332031 100.765625 55.332031 Z M 100.765625 55.332031 " fill-opacity="1" fill-rule="evenodd"/><path fill="#1a6bff" d="M 116.066406 55.332031 L 106.328125 55.332031 C 105.480469 55.332031 104.785156 54.636719 104.785156 53.789062 C 104.785156 52.9375 105.480469 52.242188 106.328125 52.242188 L 116.066406 52.242188 C 116.914062 52.242188 117.609375 52.9375 117.609375 53.789062 C 117.609375 54.636719 116.914062 55.332031 116.066406 55.332031 Z M 116.066406 55.332031 " fill-opacity="1" fill-rule="evenodd"/><path fill="#1a6bff" d="M 100.765625 66.460938 L 33.929688 66.460938 C 33.082031 66.460938 32.386719 65.765625 32.386719 64.914062 C 32.386719 64.066406 33.082031 63.371094 33.929688 63.371094 L 100.765625 63.371094 C 101.617188 63.371094 102.3125 64.066406 102.3125 64.914062 C 102.3125 65.765625 101.617188 66.460938 100.765625 66.460938 Z M 100.765625 66.460938 " fill-opacity="1" fill-rule="evenodd"/><path fill="#1a6bff" d="M 116.066406 66.460938 L 106.328125 66.460938 C 105.480469 66.460938 104.785156 65.765625 104.785156 64.914062 C 104.785156 64.066406 105.480469 63.371094 106.328125 63.371094 L 116.066406 63.371094 C 116.914062 63.371094 117.609375 64.066406 117.609375 64.914062 C 117.609375 65.765625 116.914062 66.460938 116.066406 66.460938 Z M 116.066406 66.460938 " fill-opacity="1" fill-rule="evenodd"/><path fill="#1a6bff" d="M 119.542969 108.878906 L 30.453125 108.878906 C 26.511719 108.878906 23.34375 105.710938 23.34375 101.769531 L 23.34375 80.910156 C 23.34375 76.96875 26.511719 73.800781 30.453125 73.800781 L 119.542969 73.800781 C 123.484375 73.800781 126.652344 76.96875 126.652344 80.910156 L 126.652344 101.769531 C 126.652344 105.710938 123.484375 108.878906 119.542969 108.878906 Z M 30.453125 76.890625 C 28.214844 76.890625 26.4375 78.667969 26.4375 80.910156 L 26.4375 101.769531 C 26.4375 104.011719 28.214844 105.789062 30.453125 105.789062 L 119.542969 105.789062 C 121.785156 105.789062 123.5625 104.011719 123.5625 101.769531 L 123.5625 80.910156 C 123.5625 78.667969 121.785156 76.890625 119.542969 76.890625 Z M 30.453125 76.890625 " fill-opacity="1" fill-rule="evenodd"/><path fill="#1a6bff" d="M 100.765625 87.324219 L 33.929688 87.324219 C 33.082031 87.324219 32.386719 86.628906 32.386719 85.777344 C 32.386719 84.925781 33.082031 84.230469 33.929688 84.230469 L 100.765625 84.230469 C 101.617188 84.230469 102.3125 84.925781 102.3125 85.777344 C 102.3125 86.628906 101.617188 87.324219 100.765625 87.324219 Z M 100.765625 87.324219 " fill-opacity="1" fill-rule="evenodd"/><path fill="#1a6bff" d="M 116.066406 87.324219 L 106.328125 87.324219 C 105.480469 87.324219 104.785156 86.628906 104.785156 85.777344 C 104.785156 84.925781 105.480469 84.230469 106.328125 84.230469 L 116.066406 84.230469 C 116.914062 84.230469 117.609375 84.925781 117.609375 85.777344 C 117.609375 86.628906 116.914062 87.324219 116.066406 87.324219 Z M 116.066406 87.324219 " fill-opacity="1" fill-rule="evenodd"/><path fill="#1a6bff" d="M 100.765625 98.449219 L 33.929688 98.449219 C 33.082031 98.449219 32.386719 97.753906 32.386719 96.902344 C 32.386719 96.054688 33.082031 95.359375 33.929688 95.359375 L 100.765625 95.359375 C 101.617188 95.359375 102.3125 96.054688 102.3125 96.902344 C 102.3125 97.753906 101.617188 98.449219 100.765625 98.449219 Z M 100.765625 98.449219 " fill-opacity="1" fill-rule="evenodd"/><path fill="#1a6bff" d="M 116.066406 98.449219 L 106.328125 98.449219 C 105.480469 98.449219 104.785156 97.753906 104.785156 96.902344 C 104.785156 96.054688 105.480469 95.359375 106.328125 95.359375 L 116.066406 95.359375 C 116.914062 95.359375 117.609375 96.054688 117.609375 96.902344 C 117.609375 97.753906 116.914062 98.449219 116.066406 98.449219 Z M 116.066406 98.449219 " fill-opacity="1" fill-rule="evenodd"/><path fill="#1a6bff" d="M 119.542969 140.945312 L 30.453125 140.945312 C 26.511719 140.945312 23.34375 137.699219 23.34375 133.761719 L 23.34375 112.898438 C 23.34375 108.957031 26.511719 105.789062 30.453125 105.789062 L 119.542969 105.789062 C 123.484375 105.789062 126.652344 108.957031 126.652344 112.898438 L 126.652344 133.761719 C 126.652344 137.699219 123.484375 140.945312 119.542969 140.945312 Z M 30.453125 108.878906 C 28.214844 108.878906 26.4375 110.734375 26.4375 112.898438 L 26.4375 133.761719 C 26.4375 136 28.214844 137.855469 30.453125 137.855469 L 119.542969 137.855469 C 121.785156 137.855469 123.5625 136 123.5625 133.761719 L 123.5625 112.898438 C 123.5625 110.734375 121.785156 108.878906 119.542969 108.878906 Z M 30.453125 108.878906 " fill-opacity="1" fill-rule="evenodd"/><path fill="#1a6bff" d="M 100.765625 119.3125 L 33.929688 119.3125 C 33.082031 119.3125 32.386719 118.617188 32.386719 117.765625 C 32.386719 116.914062 33.082031 116.21875 33.929688 116.21875 L 100.765625 116.21875 C 101.617188 116.21875 102.3125 116.914062 102.3125 117.765625 C 102.3125 118.617188 101.617188 119.3125 100.765625 119.3125 Z M 100.765625 119.3125 " fill-opacity="1" fill-rule="evenodd"/><path fill="#1a6bff" d="M 116.066406 119.3125 L 106.328125 119.3125 C 105.480469 119.3125 104.785156 118.617188 104.785156 117.765625 C 104.785156 116.914062 105.480469 116.21875 106.328125 116.21875 L 116.066406 116.21875 C 116.914062 116.21875 117.609375 116.914062 117.609375 117.765625 C 117.609375 118.617188 116.914062 119.3125 116.066406 119.3125 Z M 116.066406 119.3125 " fill-opacity="1" fill-rule="evenodd"/><path fill="#1a6bff" d="M 100.765625 130.4375 L 33.929688 130.4375 C 33.082031 130.4375 32.386719 129.742188 32.386719 128.890625 C 32.386719 128.042969 33.082031 127.347656 33.929688 127.347656 L 100.765625 127.347656 C 101.617188 127.347656 102.3125 128.042969 102.3125 128.890625 C 102.3125 129.742188 101.617188 130.4375 100.765625 130.4375 Z M 100.765625 130.4375 " fill-opacity="1" fill-rule="evenodd"/><path fill="#1a6bff" d="M 116.066406 130.4375 L 106.328125 130.4375 C 105.480469 130.4375 104.785156 129.742188 104.785156 128.890625 C 104.785156 128.042969 105.480469 127.347656 106.328125 127.347656 L 116.066406 127.347656 C 116.914062 127.347656 117.609375 128.042969 117.609375 128.890625 C 117.609375 129.742188 116.914062 130.4375 116.066406 130.4375 Z M 116.066406 130.4375 " fill-opacity="1" fill-rule="evenodd"/><path fill="#1a6bff" d="M 56.878906 44.824219 C 56.03125 44.824219 55.332031 44.207031 55.332031 43.28125 L 55.332031 33.542969 L 41.8125 20.023438 C 41.269531 19.40625 41.269531 18.398438 41.8125 17.859375 C 42.429688 17.242188 43.433594 17.242188 44.054688 17.859375 L 57.960938 31.765625 C 58.269531 32.078125 58.425781 32.464844 58.425781 32.847656 L 58.425781 43.28125 C 58.425781 44.207031 57.730469 44.824219 56.878906 44.824219 Z M 56.878906 44.824219 " fill-opacity="1" fill-rule="evenodd"/><path fill="#1a6bff" d="M 93.117188 44.824219 C 92.191406 44.824219 91.570312 44.207031 91.570312 43.28125 L 91.570312 32.847656 C 91.570312 32.464844 91.726562 32.078125 91.957031 31.765625 L 105.945312 17.859375 C 106.5625 17.242188 107.488281 17.242188 108.105469 17.859375 C 108.726562 18.398438 108.726562 19.40625 108.105469 20.023438 L 94.664062 33.542969 L 94.664062 43.28125 C 94.664062 44.207031 93.96875 44.824219 93.117188 44.824219 Z M 93.117188 44.824219 " fill-opacity="1" fill-rule="evenodd"/><path fill="#1a6bff" d="M 74.960938 44.824219 C 74.109375 44.824219 73.414062 44.207031 73.414062 43.28125 L 73.414062 20.332031 C 73.414062 19.480469 74.109375 18.785156 74.960938 18.785156 C 75.808594 18.785156 76.503906 19.480469 76.503906 20.332031 L 76.503906 43.28125 C 76.503906 44.207031 75.808594 44.824219 74.960938 44.824219 Z M 74.960938 44.824219 " fill-opacity="1" fill-rule="evenodd"/><g clip-path="url(#ff1b3fb823)"><path fill="#1a6bff" d="M 39.496094 21.878906 C 35.941406 21.878906 33.082031 19.019531 33.082031 15.464844 C 33.082031 11.910156 35.941406 9.050781 39.496094 9.050781 C 43.046875 9.050781 45.90625 11.910156 45.90625 15.464844 C 45.90625 19.019531 43.046875 21.878906 39.496094 21.878906 Z M 39.496094 12.140625 C 37.640625 12.140625 36.171875 13.609375 36.171875 15.464844 C 36.171875 17.320312 37.640625 18.785156 39.496094 18.785156 C 41.347656 18.785156 42.816406 17.320312 42.816406 15.464844 C 42.816406 13.609375 41.347656 12.140625 39.496094 12.140625 Z M 39.496094 12.140625 " fill-opacity="1" fill-rule="evenodd"/></g><g clip-path="url(#7805d50218)"><path fill="#1a6bff" d="M 74.960938 21.878906 C 71.484375 21.878906 68.546875 19.019531 68.546875 15.464844 C 68.546875 11.910156 71.484375 9.050781 74.960938 9.050781 C 78.515625 9.050781 81.371094 11.910156 81.371094 15.464844 C 81.371094 19.019531 78.515625 21.878906 74.960938 21.878906 Z M 74.960938 12.140625 C 73.183594 12.140625 71.636719 13.609375 71.636719 15.464844 C 71.636719 17.320312 73.183594 18.785156 74.960938 18.785156 C 76.8125 18.785156 78.28125 17.320312 78.28125 15.464844 C 78.28125 13.609375 76.8125 12.140625 74.960938 12.140625 Z M 74.960938 12.140625 " fill-opacity="1" fill-rule="evenodd"/></g><g clip-path="url(#14e8d9401a)"><path fill="#1a6bff" d="M 110.503906 21.878906 C 106.949219 21.878906 104.089844 19.019531 104.089844 15.464844 C 104.089844 11.910156 106.949219 9.050781 110.503906 9.050781 C 113.980469 9.050781 116.914062 11.910156 116.914062 15.464844 C 116.914062 19.019531 113.980469 21.878906 110.503906 21.878906 Z M 110.503906 12.140625 C 108.648438 12.140625 107.179688 13.609375 107.179688 15.464844 C 107.179688 17.320312 108.648438 18.785156 110.503906 18.785156 C 112.28125 18.785156 113.824219 17.320312 113.824219 15.464844 C 113.824219 13.609375 112.28125 12.140625 110.503906 12.140625 Z M 110.503906 12.140625 " fill-opacity="1" fill-rule="evenodd"/></g></svg>