<svg xmlns="http://www.w3.org/2000/svg" xmlns:xlink="http://www.w3.org/1999/xlink" width="200" zoomAndPan="magnify" viewBox="0 0 150 149.999998" height="200" preserveAspectRatio="xMidYMid meet" version="1.0"><defs><clipPath id="d51efed428"><path d="M 7.863281 7.863281 L 142.113281 7.863281 L 142.113281 142.113281 L 7.863281 142.113281 Z M 7.863281 7.863281 " clip-rule="nonzero"/></clipPath></defs><rect x="-15" width="180" fill="#ffffff" y="-15" height="179.999997" fill-opacity="1"/><rect x="-15" width="180" fill="#0f1c3f" y="-15" height="179.999997" fill-opacity="1"/><g clip-path="url(#d51efed428)"><path fill="#1a6bff" d="M 74.996094 114.675781 C 53.117188 114.675781 35.316406 96.875 35.316406 74.996094 C 35.316406 53.117188 53.117188 35.320312 74.996094 35.320312 C 75.917969 35.320312 76.667969 34.570312 76.667969 33.648438 L 76.667969 9.535156 C 76.667969 8.613281 75.917969 7.863281 74.996094 7.863281 L 67.980469 7.863281 C 63.945312 7.863281 60.664062 11.144531 60.664062 15.179688 L 60.664062 19.027344 C 55.355469 20.382812 50.285156 22.484375 45.5625 25.289062 L 42.835938 22.5625 C 41.460938 21.1875 39.621094 20.425781 37.664062 20.425781 C 35.707031 20.425781 33.867188 21.183594 32.492188 22.5625 L 22.5625 32.488281 C 21.183594 33.863281 20.425781 35.703125 20.425781 37.660156 C 20.425781 39.621094 21.183594 41.457031 22.5625 42.835938 L 25.289062 45.558594 C 22.484375 50.28125 20.382812 55.351562 19.027344 60.660156 L 15.179688 60.660156 C 11.144531 60.660156 7.863281 63.941406 7.863281 67.976562 L 7.863281 82.007812 C 7.863281 86.042969 11.144531 89.324219 15.179688 89.324219 L 19.023438 89.324219 C 20.378906 94.632812 22.480469 99.699219 25.289062 104.425781 L 22.5625 107.152344 C 21.1875 108.527344 20.425781 110.367188 20.425781 112.324219 C 20.425781 114.28125 21.183594 116.121094 22.5625 117.496094 L 32.488281 127.421875 C 33.863281 128.800781 35.703125 129.558594 37.660156 129.558594 C 39.621094 129.558594 41.457031 128.800781 42.835938 127.421875 L 45.558594 124.699219 C 50.28125 127.503906 55.351562 129.601562 60.660156 130.960938 L 60.660156 134.804688 C 60.660156 138.839844 63.941406 142.121094 67.976562 142.121094 L 74.996094 142.121094 C 75.917969 142.121094 76.667969 141.371094 76.667969 140.449219 L 76.667969 116.339844 C 76.667969 115.421875 75.917969 114.675781 74.996094 114.675781 Z M 73.324219 138.785156 L 67.980469 138.785156 C 65.785156 138.785156 64.007812 137 64.007812 134.8125 L 64.007812 129.652344 C 64.007812 128.875 63.46875 128.199219 62.710938 128.023438 C 56.859375 126.671875 51.300781 124.367188 46.195312 121.175781 C 45.921875 121.007812 45.613281 120.921875 45.308594 120.921875 C 44.875 120.921875 44.445312 121.089844 44.125 121.414062 L 40.476562 125.066406 C 39.726562 125.8125 38.730469 126.222656 37.664062 126.222656 C 36.597656 126.222656 35.601562 125.808594 34.855469 125.066406 L 24.929688 115.140625 C 24.183594 114.394531 23.773438 113.398438 23.773438 112.332031 C 23.773438 111.265625 24.183594 110.269531 24.929688 109.523438 L 28.582031 105.875 C 29.132812 105.320312 29.230469 104.464844 28.816406 103.804688 C 25.621094 98.695312 23.320312 93.136719 21.96875 87.289062 C 21.792969 86.53125 21.117188 85.992188 20.339844 85.992188 L 15.179688 85.992188 C 12.992188 85.992188 11.207031 84.210938 11.207031 82.019531 L 11.207031 67.988281 C 11.207031 65.796875 12.992188 64.015625 15.179688 64.015625 L 20.339844 64.015625 C 21.117188 64.015625 21.792969 63.476562 21.96875 62.71875 C 23.320312 56.867188 25.621094 51.3125 28.816406 46.203125 C 29.230469 45.542969 29.132812 44.683594 28.582031 44.136719 L 24.925781 40.480469 C 24.179688 39.734375 23.769531 38.738281 23.769531 37.671875 C 23.769531 36.601562 24.183594 35.605469 24.925781 34.859375 L 34.851562 24.933594 C 35.597656 24.1875 36.59375 23.777344 37.660156 23.777344 C 38.726562 23.777344 39.726562 24.191406 40.472656 24.933594 L 44.125 28.589844 C 44.679688 29.140625 45.535156 29.238281 46.195312 28.824219 C 51.300781 25.632812 56.859375 23.324219 62.707031 21.972656 C 63.464844 21.796875 64.003906 21.125 64.003906 20.34375 L 64.003906 15.179688 C 64.003906 12.988281 65.785156 11.207031 67.976562 11.207031 L 73.324219 11.207031 L 73.324219 32.007812 C 50.375 32.890625 31.972656 51.835938 31.972656 74.996094 C 31.972656 98.15625 50.375 117.101562 73.324219 117.984375 Z M 134.132812 75.882812 C 130.296875 75.882812 127.085938 78.597656 126.316406 82.203125 L 107.609375 82.203125 C 108.121094 79.882812 108.394531 77.46875 108.394531 74.996094 C 108.394531 72.667969 108.15625 70.394531 107.699219 68.199219 L 134.132812 68.199219 C 135.054688 68.199219 135.804688 67.449219 135.804688 66.527344 L 135.804688 46.945312 C 139.410156 46.175781 142.125 42.960938 142.125 39.128906 C 142.125 34.722656 138.542969 31.136719 134.132812 31.136719 C 129.722656 31.136719 126.136719 34.71875 126.136719 39.128906 C 126.136719 42.964844 128.851562 46.175781 132.460938 46.945312 L 132.460938 64.855469 L 106.820312 64.855469 C 105.164062 59.660156 102.261719 55.015625 98.476562 51.265625 L 112.804688 51.265625 C 113.726562 51.265625 114.476562 50.515625 114.476562 49.59375 L 114.476562 35.726562 C 118.085938 34.957031 120.800781 31.746094 120.800781 27.914062 C 120.800781 23.503906 117.214844 19.917969 112.804688 19.917969 C 108.398438 19.917969 104.8125 23.503906 104.8125 27.914062 C 104.8125 31.746094 107.523438 34.957031 111.136719 35.726562 L 111.136719 47.921875 L 94.535156 47.921875 C 89.035156 43.941406 82.285156 41.59375 74.996094 41.59375 C 56.578125 41.59375 41.597656 56.578125 41.597656 74.996094 C 41.597656 93.414062 56.582031 108.398438 74.996094 108.398438 C 82.285156 108.398438 89.039062 106.046875 94.535156 102.066406 L 115.679688 102.066406 L 115.679688 114.261719 C 112.070312 115.035156 109.355469 118.246094 109.355469 122.078125 C 109.355469 126.484375 112.941406 130.074219 117.347656 130.074219 C 121.757812 130.074219 125.34375 126.488281 125.34375 122.078125 C 125.34375 118.242188 122.632812 115.03125 119.019531 114.261719 L 119.019531 100.398438 C 119.019531 99.476562 118.273438 98.726562 117.347656 98.726562 L 98.476562 98.726562 C 102.164062 95.078125 105.007812 90.578125 106.6875 85.550781 L 126.316406 85.550781 C 127.085938 89.15625 130.300781 91.875 134.132812 91.875 C 138.539062 91.875 142.125 88.289062 142.125 83.878906 C 142.125 79.46875 138.542969 75.882812 134.132812 75.882812 Z M 129.480469 39.128906 C 129.480469 36.5625 131.566406 34.476562 134.132812 34.476562 C 136.699219 34.476562 138.785156 36.5625 138.785156 39.128906 C 138.785156 41.695312 136.699219 43.78125 134.132812 43.78125 C 131.566406 43.78125 129.480469 41.695312 129.480469 39.128906 Z M 108.15625 27.914062 C 108.15625 25.347656 110.242188 23.261719 112.804688 23.261719 C 115.371094 23.261719 117.457031 25.347656 117.457031 27.914062 C 117.457031 30.476562 115.371094 32.5625 112.804688 32.5625 C 110.242188 32.5625 108.15625 30.476562 108.15625 27.914062 Z M 122 122.078125 C 122 124.644531 119.914062 126.730469 117.347656 126.730469 C 114.785156 126.730469 112.699219 124.644531 112.699219 122.078125 C 112.699219 119.515625 114.785156 117.425781 117.347656 117.425781 C 119.914062 117.425781 122 119.515625 122 122.078125 Z M 68.761719 104.398438 L 68.761719 93.046875 C 68.761719 92.371094 68.351562 91.757812 67.726562 91.503906 C 60.484375 88.535156 55.808594 81.5625 55.808594 73.738281 C 55.808594 66.882812 59.503906 60.507812 65.46875 57.082031 L 65.46875 72.378906 C 65.46875 77.660156 69.765625 81.953125 75.046875 81.953125 C 80.328125 81.953125 84.621094 77.660156 84.621094 72.378906 L 84.621094 57.136719 C 90.519531 60.566406 94.183594 66.921875 94.183594 73.738281 C 94.183594 81.5625 89.503906 88.535156 82.265625 91.5 C 81.640625 91.757812 81.230469 92.367188 81.230469 93.046875 L 81.230469 104.398438 C 79.21875 104.824219 77.132812 105.046875 74.996094 105.046875 C 72.859375 105.054688 70.773438 104.824219 68.761719 104.398438 Z M 84.605469 57.128906 C 84.605469 57.132812 84.601562 57.132812 84.601562 57.132812 L 83.503906 55.875 L 84.621094 57.105469 C 84.621094 57.113281 84.617188 57.117188 84.613281 57.121094 C 84.605469 57.121094 84.601562 57.125 84.601562 57.125 C 84.601562 57.125 84.601562 57.125 84.605469 57.128906 Z M 84.621094 57.121094 L 84.621094 57.117188 L 84.628906 57.121094 C 84.625 57.117188 84.625 57.117188 84.621094 57.121094 Z M 84.574219 103.488281 L 84.574219 94.140625 C 92.476562 90.4375 97.523438 82.546875 97.523438 73.738281 C 97.523438 65.726562 93.214844 58.253906 86.273438 54.234375 C 85.230469 53.632812 83.988281 53.628906 82.941406 54.230469 C 81.902344 54.832031 81.277344 55.910156 81.277344 57.113281 L 81.277344 72.378906 C 81.277344 75.816406 78.480469 78.613281 75.042969 78.613281 C 71.605469 78.613281 68.808594 75.816406 68.808594 72.378906 L 68.808594 57.058594 C 68.808594 55.855469 68.191406 54.78125 67.152344 54.179688 C 66.113281 53.578125 64.875 53.574219 63.832031 54.167969 C 56.816406 58.175781 52.460938 65.675781 52.460938 73.742188 C 52.460938 82.550781 57.507812 90.4375 65.414062 94.144531 L 65.414062 103.492188 C 53.523438 99.484375 44.933594 88.226562 44.933594 75 C 44.933594 58.425781 58.417969 44.941406 74.992188 44.941406 C 91.5625 44.941406 105.050781 58.421875 105.050781 74.996094 C 105.050781 88.222656 96.464844 99.480469 84.574219 103.488281 Z M 134.132812 88.527344 C 131.566406 88.527344 129.480469 86.441406 129.480469 83.875 C 129.480469 81.3125 131.566406 79.222656 134.132812 79.222656 C 136.699219 79.222656 138.785156 81.3125 138.785156 83.875 C 138.785156 86.441406 136.699219 88.527344 134.132812 88.527344 Z M 134.132812 88.527344 " fill-opacity="1" fill-rule="nonzero"/></g></svg>