<svg width="1387" height="404" viewBox="0 0 1387 404" fill="none" xmlns="http://www.w3.org/2000/svg">
<path d="M1186.48 147.569C1186.48 136.929 1187.49 126.899 1189.49 117.48C1191.59 107.886 1194.38 99.6004 1197.87 92.6231C1201.36 85.6459 1205.46 80.1513 1210.17 76.1393C1214.89 71.953 1219.95 69.8598 1225.36 69.8598H1324.66V125.329H1225.36C1222.3 125.329 1219.69 127.509 1217.5 131.87C1215.32 136.231 1214.23 141.464 1214.23 147.569C1214.23 153.674 1215.28 158.994 1217.37 163.53C1219.55 167.89 1222.22 170.071 1225.36 170.071H1347.6C1353.1 170.071 1358.21 172.164 1362.92 176.35C1367.72 180.362 1371.9 185.944 1375.48 193.096C1379.06 200.073 1381.85 208.358 1383.86 217.952C1385.95 227.546 1387 237.75 1387 248.565C1387 259.38 1385.95 269.584 1383.86 279.178C1381.85 288.597 1379.06 296.882 1375.48 304.034C1371.9 311.186 1367.72 316.855 1362.92 321.041C1358.21 325.053 1353.1 327.059 1347.6 327.059H1235.23L1210.17 269.758L1347.6 271.59C1349.26 271.59 1350.79 270.979 1352.18 269.758C1353.67 268.537 1354.93 266.88 1355.98 264.787C1357.03 262.694 1357.86 260.252 1358.47 257.461C1359.08 254.67 1359.38 251.705 1359.38 248.565C1359.38 241.937 1358.25 236.442 1355.98 232.081C1353.71 227.546 1350.92 225.278 1347.6 225.278H1225.36C1219.95 225.278 1214.89 223.272 1210.17 219.26C1205.46 215.074 1201.36 209.492 1197.87 202.515C1194.38 195.538 1191.59 187.339 1189.49 177.92C1187.49 168.501 1186.48 158.384 1186.48 147.569ZM1150.75 170.071L1176.01 225.278H1044.74V271.59H1197.22L1222.61 327.059H985.999L1037.26 170.071H1150.75ZM1016.99 125.329L982.727 70.1214H1105.07L1130.47 125.329H1016.99Z" fill="white"/>
<path d="M1181.03 151.93C1181.03 141.29 1182.03 131.26 1184.04 121.84C1186.14 112.247 1188.93 103.961 1192.42 96.9839C1195.91 90.0066 1200.01 84.512 1204.72 80.5001C1209.43 76.3138 1214.49 74.2206 1219.9 74.2206H1319.21V129.69H1219.9C1216.85 129.69 1214.23 131.87 1212.05 136.231C1209.87 140.592 1208.78 145.825 1208.78 151.93C1208.78 158.035 1209.83 163.355 1211.92 167.89C1214.1 172.251 1216.76 174.432 1219.9 174.432H1342.15C1347.65 174.432 1352.75 176.525 1357.46 180.711C1362.26 184.723 1366.45 190.305 1370.03 197.456C1373.61 204.434 1376.4 212.719 1378.41 222.313C1380.5 231.907 1381.55 242.111 1381.55 252.926C1381.55 263.74 1380.5 273.945 1378.41 283.538C1376.4 292.958 1373.61 301.243 1370.03 308.395C1366.45 315.547 1362.26 321.216 1357.46 325.402C1352.75 329.414 1347.65 331.42 1342.15 331.42H1229.77L1204.72 274.119L1342.15 275.951C1343.81 275.951 1345.34 275.34 1346.73 274.119C1348.21 272.898 1349.48 271.241 1350.53 269.148C1351.57 267.055 1352.4 264.613 1353.01 261.822C1353.62 259.031 1353.93 256.065 1353.93 252.926C1353.93 246.297 1352.8 240.803 1350.53 236.442C1348.26 231.907 1345.47 229.639 1342.15 229.639H1219.9C1214.49 229.639 1209.43 227.633 1204.72 223.621C1200.01 219.435 1195.91 213.853 1192.42 206.876C1188.93 199.899 1186.14 191.7 1184.04 182.281C1182.03 172.862 1181.03 162.745 1181.03 151.93ZM1145.3 174.432L1170.56 229.639H1039.28V275.951H1191.76L1217.16 331.42H980.546L1031.81 174.432H1145.3ZM1011.54 129.69L977.274 74.4822H1099.62L1125.01 129.69H1011.54Z" fill="#1A6BFF"/>
<path d="M944.352 201.229C944.103 201.229 943.891 187.84 943.891 171.477V141.726H972.529V175.316L963.614 175.076C958.311 174.932 954.551 175.23 954.33 175.796C954.126 176.324 955.642 179.021 957.702 181.794C959.762 184.568 961.443 187.044 961.443 187.313C961.443 187.581 957.702 190.816 953.129 194.51C948.556 198.205 944.602 201.229 944.352 201.229Z" fill="white"/>
<path d="M896.804 204.588L896.794 188.032L896.776 171.477H925.414V217.544L922.412 219.377C919.428 221.191 919.391 221.191 916.499 219.137C914.892 217.995 909.811 214.252 896.804 204.588Z" fill="white"/>
<path d="M850.354 238.696C849.975 238.677 849.661 228.945 849.661 217.064V195.47L877.838 195.422L878.549 198.57C878.928 200.298 879.242 203.215 879.223 205.067C879.214 206.92 878.9 210.096 878.521 212.131C877.911 215.461 876.627 216.814 865.523 225.807C858.752 231.297 852.728 236.46 852.128 237.266C851.536 238.082 850.742 238.725 850.354 238.696Z" fill="white"/>
<path d="M943.9 241.057L957.526 229.848C965.018 223.686 971.457 218.619 971.836 218.571C972.224 218.532 972.529 230.807 972.529 273.208L965.804 278.246C962.108 281.02 955.872 285.012 951.965 287.124C948.048 289.235 944.676 290.742 944.473 290.483C944.269 290.224 943.983 286.337 943.826 281.845C943.678 277.354 943.632 266.346 943.9 241.057Z" fill="white"/>
<path d="M896.776 295.282V269.369C896.776 255.117 896.988 243.456 897.238 243.456C897.496 243.456 902.485 247.123 908.324 251.614C914.171 256.106 919.262 259.791 919.64 259.801C920.028 259.82 921.479 258.956 925.414 255.933L924.952 295.761L916.638 296.069C912.065 296.232 905.728 296.126 896.776 295.282Z" fill="white"/>
<path d="M849.698 259.292L863.712 252.363C873.939 247.305 877.93 245.75 878.466 246.604C878.872 247.247 879.205 256.739 879.214 267.689C879.223 280.022 878.872 287.786 878.299 288.084C877.791 288.343 874.992 287.22 872.064 285.579C869.144 283.938 864.47 280.847 861.671 278.726C858.881 276.596 855.029 273.294 853.116 271.394C850.086 268.38 849.643 267.373 849.698 259.292Z" fill="white"/>
<path d="M944.352 209.95C944.103 209.95 943.891 196.562 943.891 180.199V150.447H972.529V184.038L963.614 183.798C958.311 183.654 954.551 183.951 954.33 184.517C954.126 185.045 955.642 187.742 957.702 190.516C959.762 193.289 961.443 195.765 961.443 196.034C961.443 196.303 957.702 199.537 953.129 203.232C948.556 206.927 944.602 209.95 944.352 209.95Z" fill="#1A6BFF"/>
<path d="M896.804 213.309L896.794 196.754L896.776 180.199H925.414V226.265L922.412 228.099C919.428 229.912 919.391 229.912 916.499 227.859C914.892 226.716 909.811 222.974 896.804 213.309Z" fill="#1A6BFF"/>
<path d="M850.354 247.418C849.975 247.399 849.661 237.667 849.661 225.786V204.192L877.838 204.144L878.549 207.292C878.928 209.019 879.242 211.937 879.223 213.789C879.214 215.641 878.9 218.818 878.521 220.853C877.911 224.183 876.627 225.536 865.523 234.529C858.752 240.018 852.728 245.182 852.128 245.988C851.536 246.804 850.742 247.447 850.354 247.418Z" fill="#1A6BFF"/>
<path d="M943.9 249.779L957.526 238.569C965.018 232.408 971.457 227.34 971.836 227.292C972.224 227.254 972.529 239.529 972.529 281.929L965.804 286.968C962.108 289.742 955.872 293.734 951.965 295.845C948.048 297.957 944.676 299.464 944.473 299.204C944.269 298.945 943.983 295.058 943.826 290.567C943.678 286.075 943.632 275.067 943.9 249.779Z" fill="#1A6BFF"/>
<path d="M896.776 304.003V278.091C896.776 263.839 896.988 252.178 897.238 252.178C897.496 252.178 902.485 255.844 908.324 260.336C914.171 264.827 919.262 268.512 919.64 268.522C920.028 268.541 921.479 267.678 925.414 264.654L924.952 304.483L916.638 304.79C912.065 304.953 905.728 304.848 896.776 304.003Z" fill="#1A6BFF"/>
<path d="M849.698 268.013L863.712 261.084C873.939 256.026 877.93 254.472 878.466 255.326C878.872 255.969 879.205 265.461 879.214 276.411C879.223 288.743 878.872 296.508 878.299 296.805C877.791 297.064 874.992 295.941 872.064 294.3C869.144 292.659 864.47 289.569 861.671 287.448C858.881 285.317 855.029 282.016 853.116 280.116C850.086 277.102 849.643 276.094 849.698 268.013Z" fill="#1A6BFF"/>
<path d="M965.963 197.652C965.963 197.358 965.304 195.95 964.509 194.501L963.054 191.875H976.666C988.036 191.875 990.08 192.106 989.028 193.272C988.344 194.028 984.314 197.956 980.079 201.99L953.207 227.65C942.667 237.723 930.732 249.162 926.686 253.069C922.647 256.966 918.567 260.695 917.625 261.346C916.137 262.365 914.409 261.157 904.365 252.072C898.008 246.326 892.336 241.295 891.746 240.906C891.155 240.517 883.456 244.456 874.635 249.656C865.814 254.866 858.5 259.004 858.388 258.846C858.277 258.699 863.479 253.29 869.938 246.82C876.406 240.36 884.097 232.682 892.387 224.436L903.295 234.194C909.293 239.562 914.682 244.288 915.273 244.698C915.932 245.16 922.536 239.509 932.52 229.951C941.418 221.432 952.582 210.792 957.331 206.317C962.079 201.843 965.963 197.946 965.963 197.652Z" fill="white"/>
<path d="M848.269 320.518C839.543 319.995 831.385 316.332 823.793 309.529C816.202 302.552 809.571 293.307 803.899 281.794C798.227 270.282 793.733 256.85 790.418 241.501C787.189 226.151 785.575 209.667 785.575 192.049C785.575 174.257 787.233 157.599 790.549 142.075C793.952 126.376 798.576 112.77 804.422 101.258C810.269 89.5706 817.075 80.413 824.84 73.7846C832.694 66.9817 841.07 63.5803 849.97 63.5803H978.368C987.094 63.9292 995.253 67.5923 1002.84 74.5695C1010.44 81.3723 1017.07 90.6172 1022.74 102.304C1028.41 113.817 1032.86 127.335 1036.09 142.859C1039.4 158.209 1041.06 174.606 1041.06 192.049C1041.06 209.841 1039.36 226.587 1035.96 242.285C1032.64 257.81 1028.06 271.416 1022.21 283.102C1016.37 294.615 1009.56 303.773 1001.8 310.575C994.031 317.204 985.698 320.518 976.798 320.518H848.269ZM813.322 192.049C813.322 202.166 814.282 211.673 816.202 220.569C818.122 229.29 820.696 236.965 823.924 243.594C827.153 250.048 830.861 255.193 835.049 259.031C839.238 262.868 843.644 264.874 848.269 265.049H976.798C981.771 265.049 986.483 263.13 990.933 259.293C995.383 255.455 999.266 250.222 1002.58 243.594C1005.9 236.965 1008.52 229.29 1010.44 220.569C1012.35 211.673 1013.31 202.166 1013.31 192.049C1013.31 181.758 1012.35 172.251 1010.44 163.53C1008.52 154.634 1005.94 146.959 1002.71 140.505C999.484 133.876 995.732 128.731 991.457 125.067C987.269 121.23 982.906 119.224 978.368 119.05H849.97C844.909 119.05 840.154 120.968 835.704 124.806C831.254 128.643 827.371 133.876 824.055 140.505C820.739 146.959 818.122 154.634 816.202 163.53C814.282 172.426 813.322 181.932 813.322 192.049Z" fill="white"/>
<path d="M848.269 331.42C839.543 330.897 831.385 327.234 823.793 320.431C816.202 313.454 809.571 304.209 803.899 292.696C798.227 281.184 793.733 267.752 790.418 252.402C787.189 237.053 785.575 220.569 785.575 202.951C785.575 185.159 787.233 168.501 790.549 152.977C793.952 137.278 798.576 123.672 804.422 112.16C810.269 100.473 817.075 91.315 824.84 84.6866C832.694 77.8837 841.07 74.4823 849.97 74.4823H978.368C987.094 74.8312 995.253 78.4942 1002.84 85.4715C1010.44 92.2743 1017.07 101.519 1022.74 113.206C1028.41 124.719 1032.86 138.237 1036.09 153.761C1039.4 169.111 1041.06 185.508 1041.06 202.951C1041.06 220.743 1039.36 237.489 1035.96 253.187C1032.64 268.712 1028.06 282.318 1022.21 294.004C1016.37 305.517 1009.56 314.675 1001.8 321.477C994.031 328.106 985.698 331.42 976.798 331.42H848.269ZM813.322 202.951C813.322 213.068 814.282 222.575 816.202 231.471C818.122 240.192 820.696 247.867 823.924 254.496C827.153 260.95 830.861 266.095 835.049 269.933C839.238 273.77 843.644 275.776 848.269 275.951H976.798C981.771 275.951 986.483 274.032 990.933 270.195C995.383 266.357 999.266 261.124 1002.58 254.496C1005.9 247.867 1008.52 240.192 1010.44 231.471C1012.35 222.575 1013.31 213.068 1013.31 202.951C1013.31 192.66 1012.35 183.153 1010.44 174.432C1008.52 165.536 1005.94 157.861 1002.71 151.407C999.484 144.778 995.732 139.632 991.457 135.969C987.269 132.132 982.906 130.126 978.368 129.952H849.97C844.909 129.952 840.154 131.87 835.704 135.708C831.254 139.545 827.371 144.778 824.055 151.407C820.739 157.861 818.122 165.536 816.202 174.432C814.282 183.328 813.322 192.834 813.322 202.951Z" fill="#1A6BFF"/>
<path d="M561.169 70.1215L533.901 125.329H445.382V327.059H417.635V125.329H336.617L311.356 70.1215H561.169ZM282.823 70.1215L400.358 327.059H362.794L310.571 212.719V327.059H282.823V70.1215Z" fill="white"/>
<path d="M555.715 74.4823L528.448 129.69H439.929V331.42H412.181V129.69H331.163L305.902 74.4823H555.715ZM277.37 74.4823L394.904 331.42H357.34L305.117 217.08V331.42H277.37V74.4823Z" fill="#1A6BFF"/>
<path d="M741.731 63.5803C747.054 63.5803 752.071 65.6735 756.783 69.8599C761.495 73.8718 765.596 79.3664 769.086 86.3436C772.576 93.3209 775.325 101.519 777.332 110.938C779.426 120.358 780.473 130.388 780.473 141.028C780.473 151.843 779.426 161.96 777.332 171.379C775.325 180.798 772.576 188.997 769.086 195.974C765.596 202.951 761.495 208.533 756.783 212.719C752.071 216.731 747.054 218.737 741.731 218.737H714.115L760.579 320.518H723.015L651.159 163.53H741.731C743.215 163.53 744.611 163.006 745.92 161.96C747.316 160.739 748.494 159.082 749.453 156.988C750.501 154.895 751.329 152.54 751.94 149.924C752.551 147.133 752.856 144.168 752.856 141.028C752.856 135.097 751.766 129.952 749.584 125.591C747.49 121.056 744.873 118.788 741.731 118.788H630.741L605.611 63.5803H741.731ZM577.994 63.5803L695.398 320.518H657.834L577.994 145.476L498.024 320.518H460.46L577.994 63.5803Z" fill="white"/>
<path d="M742.822 74.4823C748.145 74.4823 753.162 76.5755 757.874 80.7618C762.585 84.7738 766.687 90.2684 770.177 97.2456C773.667 104.223 776.416 112.421 778.423 121.84C780.517 131.26 781.564 141.29 781.564 151.93C781.564 162.745 780.517 172.862 778.423 182.281C776.416 191.7 773.667 199.899 770.177 206.876C766.687 213.853 762.585 219.435 757.874 223.621C753.162 227.633 748.145 229.639 742.822 229.639H715.205L761.669 331.42H724.105L652.25 174.432H742.822C744.305 174.432 745.701 173.908 747.01 172.862C748.406 171.641 749.584 169.984 750.544 167.89C751.591 165.797 752.42 163.442 753.031 160.826C753.642 158.035 753.947 155.07 753.947 151.93C753.947 145.999 752.856 140.854 750.675 136.493C748.581 131.957 745.963 129.69 742.822 129.69H631.832L606.702 74.4823H742.822ZM579.085 74.4823L696.489 331.42H658.925L579.085 156.378L499.114 331.42H461.55L579.085 74.4823Z" fill="#1A6BFF"/>
<path d="M529.77 324.879H524.63L578.62 209.318L632.61 324.879H628.866" stroke="white" stroke-width="13"/>
<path d="M1347.57 58.8707L1353.02 89.109L1367.75 100.298L1353.02 111.487L1347.57 141.726L1342.12 111.487L1327.39 100.298L1342.12 89.109L1347.57 58.8707Z" fill="#D9D9D9"/>
<path d="M193.055 178.792H42.5376" stroke="white" stroke-width="4"/>
<ellipse cx="43.6283" cy="178.792" rx="10.9071" ry="21.8039" fill="white"/>
<path d="M189.783 233.302H11.9978" stroke="white" stroke-width="4"/>
<ellipse cx="11.9978" cy="233.302" rx="10.9071" ry="21.8039" fill="white"/>
<path d="M167.969 276.91H63.8064L10.3617 381.569" stroke="white" stroke-width="4"/>
<ellipse cx="10.9071" cy="381.569" rx="10.9071" ry="21.8039" fill="white"/>
<path d="M187.056 138.455H68.1692L13.6339 25.0746" stroke="white" stroke-width="4"/>
<ellipse cx="11.9978" cy="23.9844" rx="10.9071" ry="21.8039" fill="white"/>
<path d="M60.5547 50.686C45.4903 25.1508 33.4688 3.30932 33.8194 2.13505C34.2452 0.747266 58.4259 0 102.53 0C168.786 0 170.651 0.106752 173.456 4.27009C175.047 6.61864 184.864 23.4215 195.295 41.6334C205.714 59.8453 229.068 99.7067 247.201 130.238C265.32 160.769 279.721 186.454 279.208 187.329C278.694 188.204 262.49 188.952 208.143 189.08L154.923 97.1446L87.9286 97.1019L60.5547 50.686Z" fill="white"/>
<path d="M60.5547 340.126C45.4903 365.661 33.4688 387.503 33.8194 388.677C34.2452 390.065 58.4259 390.812 102.53 390.812C168.786 390.812 170.651 390.706 173.456 386.542C175.047 384.194 184.864 367.391 195.295 349.179C205.714 330.967 229.068 291.106 247.201 260.574C265.32 230.043 279.721 204.359 279.208 203.483C278.694 202.608 262.49 201.861 208.143 201.733L154.923 293.668L87.9286 293.71L60.5547 340.126Z" fill="white"/>
<path d="M49.6476 57.2272C34.5832 31.692 22.5617 9.85052 22.9123 8.67624C23.3381 7.28846 47.5188 6.5412 91.6226 6.5412C157.878 6.5412 159.744 6.64795 162.549 10.8113C164.14 13.1598 173.957 29.9627 184.388 48.1746C194.807 66.3865 218.161 106.248 236.294 136.779C254.413 167.31 268.814 192.995 268.301 193.87C267.787 194.746 251.583 195.493 197.236 195.621L144.016 103.686L77.0215 103.643L49.6476 57.2272Z" fill="#1A6BFF"/>
<path d="M49.6476 346.667C34.5832 372.203 22.5617 394.044 22.9123 395.218C23.3381 396.606 47.5188 397.353 91.6226 397.353C157.878 397.353 159.744 397.247 162.549 393.083C164.14 390.735 173.957 373.932 184.388 355.72C194.807 337.508 218.161 297.647 236.294 267.116C254.413 236.585 268.814 210.9 268.301 210.025C267.787 209.149 251.583 208.402 197.236 208.274L144.016 300.209L77.0215 300.252L49.6476 346.667Z" fill="#1A6BFF"/>
</svg>
