<svg xmlns="http://www.w3.org/2000/svg" xmlns:xlink="http://www.w3.org/1999/xlink" width="240" zoomAndPan="magnify" viewBox="0 0 180 179.999997" height="240" preserveAspectRatio="xMidYMid meet" version="1.0"><defs><clipPath id="c60fa1a973"><path d="M 12.53125 10.949219 L 167.78125 10.949219 L 167.78125 169.199219 L 12.53125 169.199219 Z M 12.53125 10.949219 " clip-rule="nonzero"/></clipPath></defs><rect x="-18" width="216" fill="#ffffff" y="-18" height="215.999996" fill-opacity="1"/><rect x="-18" width="216" fill="#ffffff" y="-18" height="215.999996" fill-opacity="1"/><g clip-path="url(#c60fa1a973)"><path fill="#1a6bff" d="M 154.726562 157.554688 L 139.808594 157.554688 C 138.324219 157.554688 137.027344 156.351562 137.027344 154.773438 L 137.027344 73.871094 C 137.027344 72.390625 138.324219 71.09375 139.808594 71.09375 L 154.726562 71.09375 C 156.300781 71.09375 157.507812 72.390625 157.507812 73.871094 L 157.507812 154.773438 C 157.507812 156.351562 156.300781 157.554688 154.726562 157.554688 Z M 32.679688 89.347656 C 27.398438 89.347656 23.132812 85.085938 23.132812 79.710938 C 23.132812 74.429688 27.398438 70.164062 32.679688 70.164062 C 35.179688 70.164062 37.496094 71.09375 39.164062 72.667969 L 52.046875 64.976562 C 51.863281 64.234375 51.769531 63.492188 51.769531 62.660156 C 51.769531 57.375 56.03125 53.113281 61.3125 53.113281 C 66.597656 53.113281 70.953125 57.375 70.953125 62.660156 C 70.953125 64.140625 70.675781 65.4375 70.117188 66.644531 L 84.851562 79.617188 C 86.335938 78.691406 88.097656 78.226562 89.949219 78.226562 C 92.265625 78.226562 94.398438 78.96875 96.066406 80.359375 L 109.503906 71.183594 C 109.132812 70.257812 109.039062 69.332031 109.039062 68.3125 C 109.039062 63.03125 113.304688 58.675781 118.585938 58.675781 C 120.902344 58.675781 123.035156 59.507812 124.703125 60.898438 L 138.140625 51.722656 C 137.859375 50.796875 137.675781 49.871094 137.675781 48.851562 C 137.675781 43.570312 141.9375 39.214844 147.3125 39.214844 C 152.597656 39.214844 156.859375 43.570312 156.859375 48.851562 C 156.859375 54.132812 152.597656 58.488281 147.3125 58.488281 C 144.996094 58.488281 142.867188 57.65625 141.195312 56.265625 L 127.761719 65.4375 C 128.039062 66.367188 128.222656 67.292969 128.222656 68.3125 C 128.222656 73.59375 123.960938 77.949219 118.585938 77.949219 C 116.359375 77.949219 114.230469 77.117188 112.5625 75.820312 L 99.125 84.898438 C 99.402344 85.828125 99.585938 86.753906 99.585938 87.773438 C 99.585938 93.054688 95.230469 97.410156 89.949219 97.410156 C 84.667969 97.410156 80.40625 93.054688 80.40625 87.773438 C 80.40625 86.382812 80.683594 84.992188 81.238281 83.789062 L 66.410156 70.8125 C 64.929688 71.742188 63.167969 72.296875 61.3125 72.296875 C 58.8125 72.296875 56.589844 71.371094 54.828125 69.792969 L 42.039062 77.394531 C 42.222656 78.136719 42.316406 78.96875 42.316406 79.710938 C 42.316406 85.085938 37.960938 89.347656 32.679688 89.347656 Z M 92.914062 62.011719 C 83.371094 62.011719 75.121094 56.820312 70.675781 49.035156 L 92.265625 38.472656 L 103.015625 59.972656 C 99.867188 61.269531 96.53125 62.011719 92.914062 62.011719 Z M 69.285156 46.347656 C 68.078125 43.289062 67.339844 39.953125 67.339844 36.433594 C 67.339844 22.808594 77.996094 11.691406 91.339844 10.949219 L 91.339844 35.507812 Z M 94.398438 10.949219 C 107.371094 11.691406 117.660156 21.976562 118.398438 34.859375 L 94.398438 34.859375 Z M 118.398438 38.007812 C 117.9375 46.71875 112.933594 54.410156 105.703125 58.582031 L 95.417969 38.007812 Z M 164.644531 169.046875 L 15.347656 169.046875 C 13.773438 169.046875 12.570312 167.75 12.570312 166.265625 C 12.570312 164.691406 13.773438 163.484375 15.347656 163.484375 L 164.644531 163.484375 C 166.21875 163.484375 167.421875 164.691406 167.421875 166.265625 C 167.421875 167.75 166.21875 169.046875 164.644531 169.046875 Z M 126.089844 157.554688 L 111.171875 157.554688 C 109.597656 157.554688 108.390625 156.351562 108.390625 154.773438 L 108.390625 93.332031 C 108.390625 91.851562 109.597656 90.554688 111.171875 90.554688 L 126.089844 90.554688 C 127.574219 90.554688 128.871094 91.851562 128.871094 93.332031 L 128.871094 154.773438 C 128.871094 156.351562 127.574219 157.554688 126.089844 157.554688 Z M 97.457031 157.554688 L 82.535156 157.554688 C 80.960938 157.554688 79.757812 156.351562 79.757812 154.773438 L 79.757812 112.792969 C 79.757812 111.3125 80.960938 110.015625 82.535156 110.015625 L 97.457031 110.015625 C 98.9375 110.015625 100.238281 111.3125 100.238281 112.792969 L 100.238281 154.773438 C 100.238281 156.351562 98.9375 157.554688 97.457031 157.554688 Z M 68.820312 157.554688 L 53.902344 157.554688 C 52.324219 157.554688 51.121094 156.351562 51.121094 154.773438 L 51.121094 87.679688 C 51.121094 86.199219 52.324219 84.992188 53.902344 84.992188 L 68.820312 84.992188 C 70.304688 84.992188 71.601562 86.199219 71.601562 87.679688 L 71.601562 154.773438 C 71.601562 156.351562 70.304688 157.554688 68.820312 157.554688 Z M 40.183594 157.554688 L 25.265625 157.554688 C 23.691406 157.554688 22.484375 156.351562 22.484375 154.773438 L 22.484375 104.730469 C 22.484375 103.25 23.691406 102.042969 25.265625 102.042969 L 40.183594 102.042969 C 41.667969 102.042969 42.964844 103.25 42.964844 104.730469 L 42.964844 154.773438 C 42.964844 156.351562 41.667969 157.554688 40.183594 157.554688 Z M 40.183594 157.554688 " fill-opacity="1" fill-rule="evenodd"/></g></svg>