<svg xmlns="http://www.w3.org/2000/svg" xmlns:xlink="http://www.w3.org/1999/xlink" width="240" zoomAndPan="magnify" viewBox="0 0 180 179.999997" height="240" preserveAspectRatio="xMidYMid meet" version="1.0"><defs><clipPath id="b3db1274ca"><path d="M 19.75 9 L 160 9 L 160 171 L 19.75 171 Z M 19.75 9 " clip-rule="nonzero"/></clipPath></defs><rect x="-18" width="216" fill="#ffffff" y="-18" height="215.999996" fill-opacity="1"/><rect x="-18" width="216" fill="#ffffff" y="-18" height="215.999996" fill-opacity="1"/><g clip-path="url(#b3db1274ca)"><path fill="#4d8dff" d="M 69.578125 159.15625 C 69.578125 160.351562 68.609375 161.320312 67.414062 161.320312 L 62.988281 161.320312 C 61.792969 161.320312 60.824219 160.351562 60.824219 159.15625 C 60.824219 157.960938 61.792969 156.992188 62.988281 156.992188 L 67.414062 156.992188 C 68.609375 156.992188 69.578125 157.960938 69.578125 159.15625 Z M 57.796875 147.371094 C 56.601562 147.371094 55.632812 148.339844 55.632812 149.535156 L 55.632812 153.964844 C 55.632812 155.15625 56.601562 156.125 57.796875 156.125 C 58.988281 156.125 59.957031 155.15625 59.957031 153.964844 L 59.957031 149.535156 C 59.957031 148.339844 58.988281 147.371094 57.796875 147.371094 Z M 146.621094 101.292969 L 146.621094 104.289062 L 143.625 104.289062 C 142.429688 104.289062 141.460938 105.257812 141.460938 106.453125 C 141.460938 107.648438 142.429688 108.617188 143.625 108.617188 L 146.621094 108.617188 L 146.621094 111.582031 C 146.621094 112.777344 147.589844 113.746094 148.785156 113.746094 C 149.980469 113.746094 150.949219 112.777344 150.949219 111.582031 L 150.949219 108.617188 L 153.910156 108.617188 C 155.105469 108.617188 156.074219 107.648438 156.074219 106.453125 C 156.074219 105.257812 155.105469 104.289062 153.910156 104.289062 L 150.949219 104.289062 L 150.949219 101.292969 C 150.949219 100.097656 149.980469 99.128906 148.785156 99.128906 C 147.589844 99.128906 146.621094 100.097656 146.621094 101.292969 Z M 57.796875 162.1875 C 56.601562 162.1875 55.632812 163.15625 55.632812 164.347656 L 55.632812 168.777344 C 55.632812 169.972656 56.601562 170.941406 57.796875 170.941406 C 58.988281 170.941406 59.957031 169.972656 59.957031 168.777344 L 59.957031 164.347656 C 59.957031 163.15625 58.988281 162.1875 57.796875 162.1875 Z M 52.601562 156.992188 L 48.171875 156.992188 C 46.976562 156.992188 46.007812 157.960938 46.007812 159.15625 C 46.007812 160.351562 46.976562 161.320312 48.171875 161.320312 L 52.601562 161.320312 C 53.796875 161.320312 54.765625 160.351562 54.765625 159.15625 C 54.765625 157.960938 53.796875 156.992188 52.601562 156.992188 Z M 118.1875 144.539062 C 114.148438 144.539062 110.863281 147.828125 110.863281 151.863281 C 110.863281 155.902344 114.148438 159.191406 118.1875 159.191406 C 122.226562 159.191406 125.511719 155.902344 125.511719 151.863281 C 125.511719 147.828125 122.226562 144.539062 118.1875 144.539062 Z M 91.253906 113.746094 C 91.253906 112.550781 90.285156 111.582031 89.089844 111.582031 L 86.125 111.582031 L 86.125 108.582031 C 86.125 107.390625 85.15625 106.421875 83.960938 106.421875 C 82.769531 106.421875 81.800781 107.390625 81.800781 108.582031 L 81.800781 111.582031 L 78.804688 111.582031 C 77.609375 111.582031 76.640625 112.550781 76.640625 113.746094 C 76.640625 114.941406 77.609375 115.910156 78.804688 115.910156 L 81.800781 115.910156 L 81.800781 118.871094 C 81.800781 120.066406 82.769531 121.035156 83.960938 121.035156 C 85.15625 121.035156 86.125 120.066406 86.125 118.871094 L 86.125 115.910156 L 89.089844 115.910156 C 90.285156 115.910156 91.253906 114.941406 91.253906 113.746094 Z M 158.820312 161.75 C 156.992188 164.921875 153.710938 166.8125 150.050781 166.8125 L 86.359375 166.8125 C 82.699219 166.8125 79.417969 164.917969 77.589844 161.75 C 75.941406 158.894531 75.863281 155.5625 77.195312 152.609375 C 60.105469 144.601562 15.289062 115.496094 20.179688 32.582031 C 20.230469 31.3125 20.796875 30.109375 21.769531 29.230469 C 22.765625 28.335938 24.15625 27.863281 25.5 27.953125 C 32.542969 28.515625 52.003906 27.875 81.570312 9.855469 C 82.835938 9.167969 85.183594 9.316406 86.105469 9.738281 C 115.890625 27.878906 135.363281 28.527344 142.351562 27.957031 C 145.152344 27.773438 147.542969 29.851562 147.714844 32.574219 C 149.476562 62.429688 144.953125 88.128906 134.339844 109.050781 L 158.816406 151.652344 C 160.640625 154.808594 160.644531 158.585938 158.820312 161.75 Z M 89.242188 131.371094 L 109.421875 96.253906 C 110.976562 93.546875 113.628906 91.734375 116.699219 91.285156 C 117.390625 91.183594 118.074219 91.175781 118.753906 91.210938 C 118.84375 91.214844 118.933594 91.195312 119.019531 91.199219 C 119.109375 91.207031 119.195312 91.242188 119.28125 91.25 C 119.949219 91.320312 120.605469 91.429688 121.238281 91.625 C 121.242188 91.628906 121.246094 91.628906 121.253906 91.628906 C 121.277344 91.636719 121.296875 91.652344 121.320312 91.65625 C 121.773438 91.804688 122.21875 91.976562 122.648438 92.1875 C 127.667969 78.65625 129.671875 62.695312 128.613281 44.6875 C 122.960938 45.203125 107.34375 44.75 84.070312 30.644531 C 83.992188 30.640625 83.90625 30.640625 83.828125 30.640625 C 60.570312 44.742188 44.917969 45.21875 39.242188 44.753906 C 35.320312 111.949219 75.636719 130.601562 83.757812 133.660156 C 83.777344 133.652344 84.113281 133.652344 84.246094 133.628906 C 85.265625 133.246094 87.015625 132.53125 89.242188 131.371094 Z M 155.066406 153.816406 L 123.234375 98.410156 C 122.953125 97.910156 122.585938 97.4375 122.199219 97.078125 C 122.015625 96.902344 121.796875 96.769531 121.589844 96.621094 C 121.46875 96.535156 121.355469 96.429688 121.226562 96.351562 C 121.109375 96.28125 120.980469 96.226562 120.855469 96.164062 C 120.617188 96.042969 120.375 95.933594 120.121094 95.84375 C 119.972656 95.792969 119.824219 95.753906 119.671875 95.714844 C 119.425781 95.652344 119.175781 95.601562 118.917969 95.570312 C 118.765625 95.550781 118.609375 95.535156 118.453125 95.527344 C 118.097656 95.511719 117.742188 95.515625 117.386719 95.5625 C 117.371094 95.566406 117.351562 95.5625 117.332031 95.566406 C 115.554688 95.824219 114.078125 96.835938 113.171875 98.410156 L 92.386719 134.605469 L 92.375 134.609375 L 81.347656 153.804688 C 80.296875 155.621094 80.296875 157.777344 81.339844 159.585938 C 82.386719 161.402344 84.261719 162.488281 86.359375 162.488281 L 150.050781 162.488281 C 152.148438 162.488281 154.023438 161.402344 155.070312 159.585938 C 156.113281 157.777344 156.113281 155.621094 155.066406 153.816406 Z M 121.25 107.085938 L 115.191406 107.085938 C 113.402344 107.085938 111.675781 107.839844 110.460938 109.15625 C 109.246094 110.472656 108.628906 112.257812 108.773438 114.046875 L 110.570312 137.042969 C 110.816406 140.390625 113.636719 143.007812 116.988281 143.007812 L 119.453125 143.007812 C 122.804688 143.007812 125.625 140.390625 125.871094 137.050781 L 127.667969 114.046875 C 127.8125 112.257812 127.195312 110.472656 125.980469 109.15625 C 124.765625 107.839844 123.042969 107.085938 121.25 107.085938 Z M 79.167969 102.492188 C 77.132812 102.492188 75.472656 100.832031 75.472656 98.796875 L 75.472656 96.183594 C 75.207031 96.082031 74.945312 95.96875 74.683594 95.851562 L 72.839844 97.695312 C 71.390625 99.144531 69.035156 99.144531 67.585938 97.695312 L 60.855469 90.933594 C 59.410156 89.488281 59.410156 87.128906 60.859375 85.679688 L 62.726562 83.8125 C 62.625 83.589844 62.527344 83.339844 62.425781 83.082031 L 59.792969 83.082031 C 57.753906 83.082031 56.097656 81.425781 56.097656 79.386719 L 56.097656 69.832031 C 56.097656 67.796875 57.753906 66.136719 59.792969 66.136719 L 62.414062 66.136719 C 62.515625 65.878906 62.625 65.628906 62.738281 65.382812 L 60.890625 63.539062 C 59.457031 62.101562 59.441406 59.8125 60.847656 58.324219 L 67.613281 51.527344 C 69.019531 50.121094 71.476562 50.125 72.875 51.523438 L 74.777344 53.421875 C 75 53.324219 75.246094 53.222656 75.507812 53.121094 L 75.507812 50.488281 C 75.507812 48.453125 77.164062 46.792969 79.203125 46.792969 L 88.757812 46.792969 C 90.792969 46.792969 92.453125 48.453125 92.453125 50.488281 L 92.453125 53.136719 C 92.675781 53.226562 92.898438 53.320312 93.117188 53.421875 L 95.015625 51.523438 C 96.414062 50.125 98.875 50.125 100.273438 51.523438 L 107.003906 58.285156 C 108.449219 59.730469 108.449219 62.089844 107 63.539062 L 105.140625 65.429688 L 105.460938 66.167969 L 108.101562 66.167969 C 110.136719 66.167969 111.796875 67.828125 111.796875 69.863281 L 111.796875 79.417969 C 111.796875 81.457031 110.136719 83.113281 108.101562 83.113281 L 105.421875 83.113281 C 105.328125 83.351562 105.234375 83.585938 105.132812 83.8125 L 107 85.679688 C 108.433594 87.117188 108.453125 89.40625 107.039062 90.898438 L 100.277344 97.691406 C 98.824219 99.144531 96.46875 99.148438 95.015625 97.695312 L 93.15625 95.835938 L 92.417969 96.15625 L 92.417969 98.796875 C 92.417969 100.832031 90.761719 102.492188 88.722656 102.492188 Z M 83.960938 63.105469 C 77.613281 63.105469 72.445312 68.273438 72.445312 74.625 C 72.445312 80.976562 77.613281 86.144531 83.960938 86.144531 C 90.3125 86.144531 95.480469 80.976562 95.480469 74.625 C 95.480469 68.273438 90.3125 63.105469 83.960938 63.105469 Z M 83.960938 63.105469 " fill-opacity="1" fill-rule="nonzero"/></g></svg>